<svg xmlns="http://www.w3.org/2000/svg" width="231.003" height="156.307" viewBox="0 0 231.003 156.307">
  <g id="组_102" data-name="组 102" transform="translate(3276.841 -1758.28)">
    <g id="组_97" data-name="组 97" transform="translate(-3455 -194)">
      <g id="组_88" data-name="组 88" transform="translate(-1954.167 3181.957) rotate(-17)">
        <path id="路径_490" data-name="路径 490" d="M2441.832-385.806c-55.5,2.982-79.528-67.587-36.743-96.288s148.256.27,158.369,33.719S2483.7-388.056,2441.832-385.806Z" transform="translate(0 -8.082)" fill="#ffb8a4"/>
        <path id="路径_491" data-name="路径 491" d="M2458.357-499.693c-15.691-12.342-27.068-33.852-20.406-52.671,3.684-10.406,21.708-14.852,25.766-14.822,29.458.223,50.088,19.473,64.613,45.1,4.318,7.619,7.849,14.043,6.047,22.614s-10.431,15.572-19.067,17.026C2507.144-481.069,2474.048-487.35,2458.357-499.693Z" transform="translate(48.845 109.279)" fill="none" stroke="#ab91db" stroke-miterlimit="10" stroke-width="2.5"/>
      </g>
    </g>
  </g>
</svg>
