<svg xmlns="http://www.w3.org/2000/svg" width="271.224" height="227.347" viewBox="0 0 271.224 227.347">
  <g id="组_101" data-name="组 101" transform="translate(1860.978 -1730.129)">
    <g id="组_87" data-name="组 87" transform="translate(-3450 -181.135)">
      <path id="路径_489" data-name="路径 489" d="M1.539,71.973c3.913-15.51,12.609-29.314,26.673-35.5,16.369-7.2,35.388-3.213,52.389-8.2,18.3-5.375,33.056-17.781,50.895-24.153C154.977-4.267,188.25.291,207,16.514c20.338,17.6,23.536,46.664,24.777,70.956,1.777,34.8-5.717,84.054-56.866,72.6-12.762-2.859-24.607-8.51-37.238-11.834-16.086-4.233-30.259-1.79-45.188,4.418-11.958,4.973-23.938,11.971-36.992,10.9C15.785,160.309-6.2,102.646,1.539,71.973Z" transform="matrix(0.951, 0.309, -0.309, 0.951, 1639.597, 1911.263)" fill="#fce364"/>
      <g id="组_86" data-name="组 86" transform="translate(1643.667 2047.68)">
        <g id="组_81" data-name="组 81" transform="translate(0 0)">
          <circle id="椭圆_23" data-name="椭圆 23" cx="3.5" cy="3.5" r="3.5" transform="translate(0.333 0.454)" fill="#fff"/>
          <circle id="椭圆_24" data-name="椭圆 24" cx="3.801" cy="3.801" r="3.801" transform="translate(19.829)" fill="#fff"/>
          <circle id="椭圆_25" data-name="椭圆 25" cx="3.801" cy="3.801" r="3.801" transform="translate(58.72)" fill="#fff"/>
          <ellipse id="椭圆_26" data-name="椭圆 26" cx="4" cy="3.5" rx="4" ry="3.5" transform="translate(39.333 0.454)" fill="#fff"/>
          <circle id="椭圆_27" data-name="椭圆 27" cx="3.5" cy="3.5" r="3.5" transform="translate(78.333 0.454)" fill="#fff"/>
        </g>
        <g id="组_82" data-name="组 82" transform="translate(0.383 19.519)">
          <circle id="椭圆_28" data-name="椭圆 28" cx="3.801" cy="3.801" r="3.801" transform="translate(0 0)" fill="#fff"/>
          <circle id="椭圆_29" data-name="椭圆 29" cx="3.801" cy="3.801" r="3.801" transform="translate(19.446 0)" fill="#fff"/>
          <circle id="椭圆_30" data-name="椭圆 30" cx="3.801" cy="3.801" r="3.801" transform="translate(58.337 0)" fill="#fff"/>
          <circle id="椭圆_31" data-name="椭圆 31" cx="3.801" cy="3.801" r="3.801" transform="translate(38.892 0)" fill="#fff"/>
          <circle id="椭圆_32" data-name="椭圆 32" cx="3.801" cy="3.801" r="3.801" transform="translate(77.783 0)" fill="#fff"/>
        </g>
        <g id="组_83" data-name="组 83" transform="translate(0.383 39.038)">
          <circle id="椭圆_33" data-name="椭圆 33" cx="3.801" cy="3.801" r="3.801" transform="translate(0 0)" fill="#fff"/>
          <circle id="椭圆_34" data-name="椭圆 34" cx="3.801" cy="3.801" r="3.801" transform="translate(19.446 0)" fill="#fff"/>
          <circle id="椭圆_35" data-name="椭圆 35" cx="3.801" cy="3.801" r="3.801" transform="translate(58.337 0)" fill="#fff"/>
          <circle id="椭圆_36" data-name="椭圆 36" cx="3.801" cy="3.801" r="3.801" transform="translate(38.892 0)" fill="#fff"/>
          <circle id="椭圆_37" data-name="椭圆 37" cx="3.801" cy="3.801" r="3.801" transform="translate(77.783 0)" fill="#fff"/>
        </g>
        <g id="组_84" data-name="组 84" transform="translate(0.383 58.557)">
          <circle id="椭圆_38" data-name="椭圆 38" cx="3.801" cy="3.801" r="3.801" transform="translate(0 0)" fill="#fff"/>
          <circle id="椭圆_39" data-name="椭圆 39" cx="3.801" cy="3.801" r="3.801" transform="translate(19.446 0)" fill="#fff"/>
          <circle id="椭圆_40" data-name="椭圆 40" cx="3.801" cy="3.801" r="3.801" transform="translate(58.337 0)" fill="#fff"/>
          <circle id="椭圆_41" data-name="椭圆 41" cx="3.801" cy="3.801" r="3.801" transform="translate(38.892 0)" fill="#fff"/>
          <circle id="椭圆_42" data-name="椭圆 42" cx="3.801" cy="3.801" r="3.801" transform="translate(77.783 0)" fill="#fff"/>
        </g>
        <g id="组_85" data-name="组 85" transform="translate(0 78.076)">
          <circle id="椭圆_43" data-name="椭圆 43" cx="3.5" cy="3.5" r="3.5" transform="translate(0.333 0.379)" fill="#fff"/>
          <circle id="椭圆_44" data-name="椭圆 44" cx="3.801" cy="3.801" r="3.801" transform="translate(19.829)" fill="#fff"/>
          <circle id="椭圆_45" data-name="椭圆 45" cx="3.801" cy="3.801" r="3.801" transform="translate(58.72)" fill="#fff"/>
          <ellipse id="椭圆_46" data-name="椭圆 46" cx="4" cy="3.5" rx="4" ry="3.5" transform="translate(39.333 0.379)" fill="#fff"/>
          <circle id="椭圆_47" data-name="椭圆 47" cx="3.5" cy="3.5" r="3.5" transform="translate(78.333 0.379)" fill="#fff"/>
        </g>
      </g>
    </g>
  </g>
</svg>
