<?xml version="1.0" encoding="UTF-8"?>
<svg id="Layer_1" data-name="Layer 1" xmlns="http://www.w3.org/2000/svg" viewBox="0 0 244.96 95.73">
  <defs>
    <style>
      .cls-1 {
        fill: #fff;
        stroke-width: 0px;
      }
    </style>
  </defs>
  <path id="_路径_575" data-name="路径 575" class="cls-1" d="m76.79,24.83h0c-10.04-9.98-26.28-9.93-36.26.12-9.93,10-9.93,26.14,0,36.14l18.13,18.13,18.13-18.13c9.64-9.94,9.37-26.04,0-36.26m-8.64,8.09c-12.72.52-23.5,9.52-26.28,21.94l-3.03-3.03c2.39-7.06,7.48-12.88,14.16-16.19-3.45-.87-5.54-4.37-4.67-7.82.87-3.45,4.37-5.54,7.82-4.67,3.45.87,5.54,4.37,4.67,7.82,0,0,0,0,0,0-.22.86-.61,1.66-1.15,2.36,3.01-.64,6.1-.78,9.15-.42-.22-.03-.45-.03-.67,0"/>
  <path id="_路径_576" data-name="路径 576" class="cls-1" d="m35.17,0C39.32,0,42.69,3.37,42.69,7.52s-3.37,7.52-7.52,7.52-7.52-3.37-7.52-7.52,3.37-7.52,7.52-7.52h0"/>
  <path id="_路径_577" data-name="路径 577" class="cls-1" d="m58.66,79.24l3.97-4-3.94-3.94L22.53,35.13c-1.1-1.09-2.87-1.09-3.97,0l-.18.18c-.91,1.16-.79,2.83.27,3.85l36.1,36.1-3.37,3.36-9.15,9.16-30.74-30.68c-7.84-7.84-7.85-20.56,0-28.4,6.43-6.43,16.38-7.74,24.26-3.19.75-.97,1.56-1.89,2.42-2.76l.33-.33c.36-.36.76-.73,1.15-1.09-11.9-7.72-27.81-4.32-35.52,7.58-6.59,10.17-5.18,23.56,3.39,32.13l34.68,34.68,14.7-14.7h-.03l1.79-1.79Z"/>
  <path id="_路径_586" data-name="路径 586" class="cls-1" d="m109.83,52.08c-.4-.35-.63-.86-.62-1.39v-10.93l-10.66-14.31c-.21-.37-.33-.78-.36-1.2,0-.53.2-1.04.58-1.41.37-.39.89-.61,1.43-.6.74-.02,1.44.36,1.83.99l9.28,12.98,9.28-12.98c.39-.63,1.09-1,1.83-.99.53,0,1.03.21,1.41.58.38.34.6.84.6,1.35-.03.45-.15.89-.36,1.29l-10.71,14.31v10.92c0,.53-.21,1.04-.6,1.39-.39.38-.91.59-1.45.58-.55,0-1.08-.2-1.47-.58"/>
  <path id="_路径_587" data-name="路径 587" class="cls-1" d="m131.41,50.72c-1.98-1.34-3.55-3.21-4.53-5.39-2.25-5-2.26-10.73-.02-15.74.98-2.2,2.57-4.08,4.58-5.41,4.22-2.59,9.53-2.59,13.75,0,1.98,1.35,3.55,3.22,4.53,5.41,2.25,4.98,2.26,10.69.02,15.67-.99,2.21-2.58,4.1-4.6,5.45-2.03,1.31-4.41,1.99-6.84,1.94-2.44.05-4.84-.63-6.89-1.94m12.11-2.92c1.49-1.03,2.66-2.45,3.38-4.11.82-1.89,1.23-3.93,1.19-5.99.03-2.05-.37-4.08-1.17-5.96-.72-1.69-1.92-3.14-3.44-4.18-1.53-1.01-3.34-1.53-5.18-1.49-1.86-.05-3.68.48-5.21,1.53-1.49,1.03-2.66,2.45-3.38,4.12-.82,1.89-1.23,3.93-1.19,5.99-.03,2.05.37,4.08,1.17,5.96.71,1.7,1.9,3.16,3.42,4.2,1.54,1,3.35,1.51,5.2,1.47,1.86.06,3.68-.48,5.21-1.53"/>
  <path id="_路径_588" data-name="路径 588" class="cls-1" d="m162.13,51.38c-2.02-.82-3.76-2.21-5.01-4-1.27-1.87-1.92-4.08-1.87-6.34v-16.81c0-.53.22-1.04.62-1.4.39-.39.93-.61,1.48-.6.56,0,1.1.21,1.5.6.41.35.64.86.64,1.4v16.94c-.06,1.53.39,3.04,1.27,4.3.8,1.17,1.91,2.09,3.21,2.66,1.38.62,2.88.93,4.39.91,1.5,0,2.99-.29,4.37-.89,1.36-.56,2.51-1.52,3.32-2.74.81-1.26,1.22-2.74,1.18-4.24v-16.94c0-.53.22-1.04.62-1.4.39-.39.93-.61,1.48-.6.56,0,1.1.21,1.5.6.41.35.64.86.64,1.4v16.81c.06,2.29-.61,4.54-1.91,6.42-1.24,1.7-2.92,3.03-4.85,3.87-4.01,1.74-8.57,1.76-12.59.04"/>
  <path id="_路径_589" data-name="路径 589" class="cls-1" d="m187.94,52.08c-.38-.36-.59-.87-.58-1.39v-25.58c0-.76.3-1.48.84-2.01.52-.55,1.24-.86,2-.86h.56c.96.02,1.85.5,2.4,1.29l15.84,22.84c.14.17.26.26.34.26.06,0,.11-.04.17-.13.06-.09.09-.19.09-.3v-21.93c0-.53.2-1.04.58-1.41.36-.39.87-.61,1.39-.6,1.11.02,2,.91,2.02,2.01v25.57c0,.76-.31,1.48-.86,1.99-.53.54-1.26.84-2.02.84h-.52c-.46,0-.91-.11-1.31-.32-.4-.2-.74-.48-1.01-.83l-15.93-22.97c-.14-.17-.26-.26-.34-.26-.06,0-.11.04-.17.13-.06.09-.09.19-.09.3v21.98c0,.53-.21,1.04-.6,1.39-.38.37-.89.58-1.42.58-.52,0-1.03-.2-1.39-.58"/>
  <path id="_路径_590" data-name="路径 590" class="cls-1" d="m225.59,50.72c-2.24-1.25-4.08-3.12-5.29-5.39-1.27-2.41-1.91-5.11-1.86-7.84-.05-2.77.62-5.51,1.95-7.94,1.24-2.25,3.09-4.12,5.33-5.39,2.28-1.29,4.87-1.95,7.49-1.92,1.9-.03,3.78.23,5.6.76,1.74.55,3.39,1.31,4.93,2.28.27.13.5.34.63.61.17.29.25.62.25.95,0,.98-.79,1.77-1.77,1.77-.02,0-.03,0-.05,0-.31-.01-.61-.08-.89-.21-1.26-.75-2.61-1.34-4.02-1.77-1.39-.4-2.83-.6-4.27-.59-2.01-.01-4,.45-5.8,1.35-1.72.9-3.13,2.3-4.04,4.01-.98,1.88-1.46,3.97-1.42,6.08-.03,2.04.45,4.06,1.4,5.87.9,1.74,2.3,3.18,4.02,4.12,1.86,1,3.94,1.5,6.05,1.45,2.57,0,5.1-.63,7.36-1.86v-7.05c.03-.24-.14-.47-.38-.51-.04,0-.08,0-.13,0h-6.43c-.98,0-1.77-.79-1.77-1.77s.79-1.77,1.77-1.77h8.34c1.14.01,2.06.93,2.08,2.07v9.59c0,.56-.14,1.11-.42,1.58-.29.47-.72.85-1.23,1.08-3,1.53-6.32,2.34-9.69,2.37-2.71.06-5.38-.61-7.74-1.94"/>
  <path class="cls-1" d="m105.69,58.51c0,.44-.17.92-.47,1.41-1.95,3.63-3.79,6.49-5.57,8.55-.27.17-.52.22-.77.22-.8,0-1.17-.39-1.17-1.19,0-.28.1-.55.3-.86,2.2-2.66,4.09-5.6,5.64-8.77.2-.36.5-.56.87-.56.77,0,1.17.42,1.17,1.19Zm9.04,7.21c.2.22.32.44.32.69s-.05.5-.1.78c-.77,2.3-1.65,4.19-2.6,5.63-.67,1.05-1.37,1.97-2.12,2.75,1.05.83,2.42,1.61,4.09,2.36,1.15.61,2.67,1.22,4.62,1.83.52.22.8.61.8,1.19,0,.86-.37,1.3-1.07,1.3-.15,0-.35-.06-.65-.14-2.37-.92-4.27-1.78-5.67-2.55-1.47-.75-2.72-1.55-3.77-2.44-.97.78-2.02,1.53-3.15,2.19-1.52.92-3.5,1.78-5.89,2.61-.3.06-.6.11-.87.11s-.5-.11-.7-.33-.27-.47-.27-.75c0-.56.18-.92.57-1.08,2.3-.75,4.19-1.55,5.67-2.44,1.05-.61,2-1.25,2.85-1.92-.75-.8-1.45-1.75-2.1-2.83-1.1-1.72-1.92-3.58-2.5-5.6,0-.72.35-1.08,1.05-1.08.45,0,.75.25.9.75.8,2.14,1.65,3.88,2.6,5.21.5.75,1.07,1.44,1.72,2.05.75-.78,1.47-1.67,2.15-2.66.92-1.33,1.75-3.08,2.5-5.24.15-.44.42-.67.87-.67.27,0,.52.11.75.28Zm-1.92-8.07c1.1,1.17,2.1,2.3,3,3.38,1.05,1.22,2.32,3,3.84,5.38.12.25.2.5.2.78,0,.72-.4,1.08-1.17,1.08-.35,0-.65-.11-.87-.33-1.45-2.19-2.65-3.91-3.65-5.19-.85-1.05-1.77-2.14-2.8-3.27-.27-.28-.4-.56-.4-.86,0-.78.35-1.19,1.07-1.19.2,0,.45.08.77.22Z"/>
  <path class="cls-1" d="m141.77,57.43c1.1,0,1.67.61,1.67,1.83,0,.72-.2,2.83-.57,6.3-.05.44-.1.89-.12,1.3h1.67c.65,0,.97.36.97,1.08s-.32,1.08-.97,1.08h-1.92c-.3,2.44-.62,4.8-.97,7.02-.02.11-.05.19-.05.25h1.97c.7,0,1.07.36,1.07,1.08s-.37,1.08-1.07,1.08h-2.35c-.35,1.55-.7,2.55-1.05,3-.52.58-1.25.89-2.17.89-1.2,0-2.27-.14-3.22-.42-.65-.22-.97-.64-.97-1.3,0-.8.35-1.19,1.07-1.19,1.35.36,2.3.56,2.82.56.6,0,1-.5,1.2-1.53h-14.66c-1.05,0-1.55-.47-1.55-1.41,0-.44.05-.92.17-1.39.6-2.72,1.02-4.91,1.32-6.63h-1.6c-.65,0-.97-.36-.97-1.08s.32-1.08.97-1.08h1.95c.28-2,.52-4.44.77-7.38.15-1.36.85-2.05,2.05-2.05h14.53Zm-1.47,12.12c0-.17.02-.36.07-.53h-14.11c-.32,2.27-.67,4.55-1.07,6.82,0,.31.15.44.5.44h13.56c.37-1.94.72-4.19,1.05-6.74Zm.32-2.69c.25-2.33.45-4.49.57-6.52,0-.5-.22-.75-.67-.75h-12.31c-.6,0-.92.33-.97.97-.2,2.08-.43,4.19-.7,6.3h14.08Zm-7.91,3.47c.85.94,1.55,1.97,2.15,3.13.05.33.1.61.1.86,0,.67-.4,1-1.17,1-.4,0-.67-.28-.87-.89-.62-1.3-1.27-2.36-1.95-3.13-.07-.28-.1-.47-.1-.64,0-.5.32-.78.97-.78.3,0,.6.17.87.44Zm.77-9.21c.72.89,1.35,1.86,1.87,2.91.05.33.1.61.1.89,0,.67-.4.97-1.17.97-.4,0-.7-.28-.87-.89-.55-1.22-1.1-2.19-1.67-2.91-.07-.28-.1-.47-.1-.64,0-.5.32-.78.97-.78.3,0,.6.17.87.44Z"/>
  <path class="cls-1" d="m153.48,63.28c0,.17-.12.31-.32.47-.5.36-1.15.75-2,1.14-1.05.5-2.05.86-2.95,1.14-.15.06-.27.08-.37.08-.65,0-.97-.36-.97-1.11,0-.61.22-1,.67-1.19.9-.19,1.62-.39,2.2-.61.55-.17,1.35-.5,2.4-1l.37-.11c.65,0,.97.42.97,1.19Zm.3-4.02c0,.67-.3,1-.87,1h-4.79c-.6,0-.87-.33-.87-1s.27-.97.87-.97h4.79c.57,0,.87.33.87.97Zm12.88,7.38c1.1,0,1.65.58,1.65,1.75v8.02c0,1.17-.55,1.72-1.65,1.72h-4.29c.05.03.1.03.15.03,1.92.44,4.07,1.08,6.47,1.92.45.28.7.58.7.89,0,.86-.32,1.3-.97,1.3-.15,0-.37-.06-.7-.17-2.32-.89-4.62-1.64-6.92-2.22-.4-.17-.6-.44-.6-.89s.15-.72.45-.86h-4.89c.3.17.45.47.45.97,0,.25-.12.5-.37.78-1.67.83-4.02,1.58-7.04,2.28-.35.06-.57.11-.67.11-.72,0-1.07-.42-1.07-1.19,0-.28.15-.58.5-.89,2.8-.56,5.17-1.22,7.12-2.05h-4.79c-1.1,0-1.65-.56-1.65-1.72v-8.02c0-1.17.55-1.75,1.65-1.75h16.5Zm-.3,3.36v-.64c0-.5-.2-.78-.6-.78h-14.7c-.4,0-.6.28-.6.78v.64h15.9Zm0,2.94v-1.08h-15.9v1.08h15.9Zm0,2.47v-.64h-15.9v.64c0,.53.2.78.6.78h14.7c.4,0,.6-.25.6-.78Zm-8.39-17.98c-.02.22-.05.39-.07.56h9.91c1.17,0,1.77.67,1.77,1.94,0,.22-.05.47-.1.75-.12.5-.3,1.05-.5,1.64-.27.36-.57.53-.87.53-.72,0-1.07-.31-1.07-.97,0-.11.02-.25.1-.42.18-.25.32-.47.42-.69.05-.06.08-.14.08-.19,0-.56-.2-.86-.6-.86h-4.67v1.64c0,.28.2.58.6.94.45.39,1.12.72,2,.97.75.28,2.02.5,3.82.67.6.08.9.44.9,1.08-.05.64-.35.97-.9,1-2.05-.19-3.5-.44-4.34-.78-1-.31-1.75-.69-2.27-1.17-.45-.42-.68-.78-.68-1.11,0,.33-.22.69-.65,1.11-.45.47-1.07.86-1.92,1.17-.85.33-2.32.58-4.47.78-.62-.03-.95-.36-.97-1,0-.56.27-.92.87-1.08,1.9-.17,3.25-.39,3.99-.67.72-.25,1.3-.58,1.7-.97.35-.36.55-.67.55-.94v-1.64h-3.15c-.03.08-.05.14-.05.17-.32.75-.85,1.44-1.57,2.11-.3.31-.6.44-.87.44-.65,0-.97-.31-.97-.97,0-.11.03-.31.1-.56.7-.5,1.2-1.05,1.5-1.61.25-.5.45-1.11.55-1.86,0-.64.27-.97.87-.97.65,0,.97.33.97.97Z"/>
  <path class="cls-1" d="m176.8,71.94c0,.19-.07.5-.17.89-.6,2.08-1.2,3.77-1.8,5.05-.57,1.25-1.07,2.14-1.47,2.72-.2.22-.4.36-.55.36-.8,0-1.17-.42-1.17-1.19,0-.11.05-.31.2-.69.57-.92,1.05-1.8,1.4-2.63.55-1.22,1.12-2.86,1.72-4.91.15-.44.42-.67.77-.67.7.03,1.05.39,1.07,1.08Zm-2.65-7.91c.8.78,1.55,1.64,2.25,2.61.05.22.1.39.1.56,0,.72-.37,1.08-1.07,1.08-.2,0-.4-.06-.57-.22-.72-.89-1.47-1.78-2.25-2.61-.15-.25-.2-.42-.2-.53,0-.78.37-1.19,1.17-1.19.2,0,.37.11.57.31Zm.5-6.82c.82.72,1.6,1.55,2.35,2.5.05.22.1.39.1.56,0,.72-.37,1.08-1.07,1.08-.2,0-.4-.06-.6-.22-.75-.86-1.52-1.69-2.35-2.5-.12-.25-.17-.44-.17-.55,0-.78.37-1.19,1.15-1.19.2,0,.4.11.6.33Zm20,1.19c0,.67-.3.97-.9.97h-5.54v2.16h3.12c1.3,0,1.95.69,1.95,2.08v6.71c0,1.39-.65,2.05-1.95,2.05h-2.92v7.05c0,1.66-.95,2.5-2.85,2.5-.43,0-.97-.17-1.65-.44-.52-.19-.77-.56-.77-1.08,0-.78.3-1.14.87-1.19.05,0,.12.03.25.06.65.28,1.1.39,1.3.39.52,0,.8-.22.8-.67v-6.6h-3.02c-1.25,0-1.87-.67-1.87-2.05v-6.71c0-1.39.62-2.08,1.87-2.08h2.72v-2.16h-5.47c-.45,0-.67.31-.67.89v7.24c0,2.08-.15,4.05-.4,5.94-.2,1.39-.5,2.8-.95,4.3-.35,1.05-.67,1.89-1,2.55-.27.5-.57.78-.87.78-.62-.06-.95-.42-.97-1.08,0-.11.05-.33.15-.61.37-.86.7-1.69.95-2.53.37-1.19.67-2.5.87-3.88.25-1.61.37-3.44.37-5.47v-8.13c0-1.28.57-1.94,1.75-1.94h13.93c.6,0,.9.33.9.97Zm-10.83,16.37c0,.22-.05.47-.1.75-.6,1.94-1.45,3.72-2.52,5.33-.22.33-.55.53-.97.53-.72,0-1.07-.31-1.07-.86,0-.28.03-.53.08-.75,1.2-1.61,2.1-3.36,2.75-5.21.1-.42.37-.64.87-.64.65,0,.97.31.97.86Zm7.61-8.88v-1.53c0-.56-.27-.86-.8-.86h-6.62c-.45,0-.67.31-.67.86v1.53h8.09Zm0,3.69v-1.86h-8.09v1.86c0,.58.22.86.67.86h6.62c.52,0,.8-.28.8-.86Zm.57,4.63c.45.72.87,1.42,1.27,2.05.45.75,1,1.83,1.65,3.27.05.19.1.42.1.64,0,.64-.32.97-.97.97-.3,0-.57-.08-.77-.19-.6-1.33-1.1-2.36-1.5-3.13-.35-.64-.72-1.3-1.15-1.97-.2-.25-.27-.5-.27-.75,0-.72.32-1.08.97-1.08.17,0,.4.08.67.19Z"/>
  <path class="cls-1" d="m218.24,58.96c0,.72-.32,1.08-.97,1.08h-7.91v10.82h9.46c.65,0,.97.36.97,1.08s-.32,1.11-.97,1.11h-9.46v8.1c0,.78-.35,1.19-1.05,1.19s-1.07-.42-1.07-1.19v-8.1h-9.36c-.67,0-1-.36-1-1.11s.32-1.08,1-1.08h9.36v-10.82h-8.21c-.65,0-.97-.36-.97-1.08s.32-1.08.97-1.08h18.25c.65,0,.97.36.97,1.08Zm-18.05,2.8c.67.78,1.3,1.5,1.85,2.22.62.81,1.4,1.97,2.35,3.52.12.22.2.44.2.67,0,.72-.37,1.08-1.07,1.08-.35,0-.62-.06-.87-.22-.87-1.42-1.6-2.53-2.2-3.33-.52-.67-1.1-1.36-1.7-2.08-.27-.28-.4-.58-.4-.89,0-.78.35-1.19,1.07-1.19.2,0,.45.08.77.22Zm17.95.89c0,.39-.17.81-.47,1.28-1.3,2.16-2.52,3.88-3.72,5.1-.27.17-.52.22-.77.22-.72,0-1.07-.36-1.07-1.08,0-.28.05-.58.2-.89,1.5-1.61,2.8-3.36,3.9-5.3.2-.33.5-.53.87-.53.7,0,1.07.42,1.07,1.19Z"/>
  <path class="cls-1" d="m231.38,57.13c.2.25.32.53.32.86,0,.28-.07.53-.2.75-.82,1.44-1.72,2.86-2.7,4.19-.5.67-1.02,1.28-1.6,1.89,4.69-.17,8.99-.47,12.86-.92-.15-.17-.25-.31-.35-.44-.8-.92-1.7-1.89-2.65-2.89-.27-.28-.4-.56-.4-.86,0-.72.32-1.08.97-1.08.2,0,.45.08.8.22,1.02,1.03,1.95,2.03,2.8,2.97.97,1.05,2.17,2.64,3.62,4.72.05.25.1.5.1.75,0,.67-.37,1-1.07,1-.3,0-.57-.06-.77-.22-.57-.83-1.1-1.55-1.55-2.19-.07.03-.15.03-.2.03-6.62.72-12.93,1.22-18.92,1.5-.65,0-.97-.44-.97-1.39,0-.69.32-1.05.97-1.08.7,0,1.37,0,2.05-.03.8-.86,1.5-1.72,2.15-2.61,1.12-1.61,2.17-3.3,3.12-5.08.2-.28.47-.42.87-.42.27,0,.52.11.75.33Zm9.01,12.46c1.5,0,2.25.81,2.25,2.36v7.16c0,1.58-.75,2.39-2.25,2.39h-13.95c-1.45,0-2.15-.8-2.15-2.39v-7.16c0-1.55.7-2.36,2.15-2.36h13.95Zm.18,8.66v-5.41c0-.72-.32-1.08-.97-1.08h-12.38c-.6,0-.87.36-.87,1.08v5.41c0,.72.27,1.08.87,1.08h12.38c.65,0,.97-.36.97-1.08Z"/>
</svg>