<svg xmlns="http://www.w3.org/2000/svg" width="57" height="57" viewBox="0 0 57 57">
  <g id="组_100" data-name="组 100" transform="translate(478 -18)">
    <g id="组_17" data-name="组 17" transform="translate(-2158 -194)">
      <circle id="椭圆_5" data-name="椭圆 5" cx="28.5" cy="28.5" r="28.5" transform="translate(1680 212)" fill="#9d4cff"/>
      <g id="组_14" data-name="组 14" transform="translate(506.365 -292.58)">
        <path id="路径_100" data-name="路径 100" d="M1197.034,576.114l.358-.061.143-.022a29.757,29.757,0,0,1,4.481-.307h1.48c.948,0,1.873.039,2.765.118.485.042.96.1,1.423.165.223.033.443.068.661.108a15.6,15.6,0,0,1,2.927.8,10.572,10.572,0,0,1,1.554.748c2.422,1.43,3.918,3.783,3.918,7.472a.329.329,0,0,1-.329.329h-27.451a.331.331,0,0,1-.233-.1.326.326,0,0,1-.1-.233C1188.635,579.514,1192.111,577,1197.034,576.114Z" transform="translate(0 -40.49)" fill="#fce364"/>
        <circle id="椭圆_3" data-name="椭圆 3" cx="6.75" cy="6.75" r="6.75" transform="translate(1194.086 530.319) rotate(-70.67)" fill="#fce364"/>
      </g>
    </g>
  </g>
</svg>
