<svg xmlns="http://www.w3.org/2000/svg" xmlns:xlink="http://www.w3.org/1999/xlink" width="41" height="41" viewBox="0 0 41 41">
  <defs>
    <clipPath id="clip-画板_2">
      <rect width="41" height="41"/>
    </clipPath>
  </defs>
  <g id="画板_2" data-name="画板 – 2" clip-path="url(#clip-画板_2)">
    <path id="路径_597" data-name="路径 597" d="M990.179,1661.687c0-6.913-6.931-12.538-15.45-12.538s-15.451,5.624-15.451,12.538c0,6.2,5.5,11.388,12.921,12.37.5.109,1.188.332,1.361.762a3.176,3.176,0,0,1,.05,1.4s-.181,1.09-.221,1.323c-.067.39-.31,1.528,1.339.833s8.9-5.24,12.139-8.97h0A11.154,11.154,0,0,0,990.179,1661.687Zm-20.9,3.7a.3.3,0,0,1-.3.295h-4.34a.3.3,0,0,1-.3-.295v0h0v-6.738a.3.3,0,0,1,.3-.3h1.1a.3.3,0,0,1,.295.3v5.352h2.95a.3.3,0,0,1,.3.3Zm2.613,0a.3.3,0,0,1-.3.295h-1.1a.3.3,0,0,1-.295-.295v-6.743a.3.3,0,0,1,.295-.3h1.1a.3.3,0,0,1,.3.3Zm7.459,0a.3.3,0,0,1-.3.295h-1.09a.3.3,0,0,1-.077-.01h0l-.02-.007-.009,0-.015-.006-.014-.007-.008-.005-.019-.01,0,0a.3.3,0,0,1-.076-.074l-3.089-4.172v4a.3.3,0,0,1-.3.295h-1.1a.3.3,0,0,1-.295-.295v-6.743a.3.3,0,0,1,.295-.3h1.116l.016,0h.012l.018,0,.01,0,.018.005.01,0,.017.007.009.005.016.009.009.005.015.011.008.006.016.013.005.005.018.018,0,0a.294.294,0,0,1,.024.03l3.085,4.166v-4a.3.3,0,0,1,.3-.3h1.1a.3.3,0,0,1,.3.3Zm5.984-5.647a.3.3,0,0,1-.3.3h-2.95v1.138h2.95a.3.3,0,0,1,.3.3v1.1a.3.3,0,0,1-.3.3h-2.95v1.137h2.95a.3.3,0,0,1,.3.3v1.1a.3.3,0,0,1-.3.295H980.7a.3.3,0,0,1-.3-.295v0h0v-6.731h0v-.006a.3.3,0,0,1,.3-.3h4.34a.3.3,0,0,1,.3.3Z" transform="translate(-954.278 -1643.147)" fill="#fff"/>
  </g>
</svg>
