<svg xmlns="http://www.w3.org/2000/svg" width="98" height="98" viewBox="0 0 98 98">
  <g id="组_202" data-name="组 202" transform="translate(16712 11746)">
    <rect id="矩形_130" data-name="矩形 130" width="98" height="98" transform="translate(-16712 -11746)" fill="#f7d5d5"/>
    <g id="组_107" data-name="组 107" transform="translate(-16944.717 -12119)">
      <circle id="椭圆_50" data-name="椭圆 50" cx="5.133" cy="5.133" r="5.133" transform="translate(271.591 391)" fill="#fff"/>
      <path id="路径_581" data-name="路径 581" d="M228.679-275.707a17.492,17.492,0,0,0-24.737,0,17.492,17.492,0,0,0,0,24.737L216.311-238.6l12.368-12.368A17.492,17.492,0,0,0,228.679-275.707Zm-5.9,5.511a19.212,19.212,0,0,0-17.945,14.975l-2.069-2.069a19.171,19.171,0,0,1,9.688-11.05A4.39,4.39,0,0,1,209.1-272.6a4.392,4.392,0,0,1,4.392-4.391,4.392,4.392,0,0,1,4.392,4.391,4.369,4.369,0,0,1-.925,2.689,19.089,19.089,0,0,1,6.261-.292C223.075-270.2,222.925-270.2,222.774-270.2Z" transform="translate(76.457 683.661)" fill="#fff"/>
      <path id="路径_582" data-name="路径 582" d="M209.306-238.6l2.718-2.718-2.689-2.689,0,0L184.639-268.7a1.912,1.912,0,0,0-2.828.138,1.965,1.965,0,0,0,.183,2.622L206.627-241.3l0,0h0l-2.312,2.312,0,0-6.24,6.24-20.962-20.962a13.719,13.719,0,0,1,0-19.379,13.615,13.615,0,0,1,9.69-4.014,13.607,13.607,0,0,1,6.852,1.847,19.729,19.729,0,0,1,1.658-1.891l.231-.231c.253-.253.513-.5.777-.733a17.4,17.4,0,0,0-9.518-2.815,17.415,17.415,0,0,0-12.393,5.133,17.411,17.411,0,0,0-5.133,12.393A17.411,17.411,0,0,0,174.408-251l23.665,23.664,10.053-10.054-.021-.008,1.2-1.2Z" transform="translate(83.441 683.684)" fill="#fff"/>
    </g>
  </g>
</svg>
