<svg xmlns="http://www.w3.org/2000/svg" width="290.075" height="215.068" viewBox="0 0 290.075 215.068">
  <g id="组_135" data-name="组 135" transform="translate(-2121.524 507.366)">
    <path id="路径_489" data-name="路径 489" d="M1.8,74.449C6.379,58.406,16.554,44.127,33.01,37.733c19.154-7.443,41.408-3.323,61.3-8.486,21.418-5.56,38.678-18.393,59.552-24.984C181.338-4.414,220.269.3,242.2,17.082c23.8,18.205,27.54,48.269,28.992,73.4,2.08,35.994-6.689,86.946-66.539,75.095-14.932-2.957-28.793-8.8-43.572-12.241-18.822-4.378-35.406-1.852-52.874,4.57-13.992,5.144-28.01,12.383-43.285,11.279C18.47,165.824-7.254,106.178,1.8,74.449Z" transform="translate(2411.599 -339.333) rotate(173)" fill="#fce364"/>
    <g id="组_91" data-name="组 91" transform="translate(4118.84 1757.676) rotate(-133)">
      <g id="组_89" data-name="组 89" transform="translate(2714.222 52.61)">
        <path id="路径_492" data-name="路径 492" d="M2714.222,130.855a9.15,9.15,0,0,1,5.872-6.456" transform="translate(-2714.222 -54.082)" fill="none" stroke="#fc981f" stroke-linecap="round" stroke-miterlimit="10" stroke-width="2.5"/>
        <path id="路径_493" data-name="路径 493" d="M2751.751,139.027l8.308-8.214" transform="translate(-2714.991 -54.213)" fill="none" stroke="#fc981f" stroke-linecap="round" stroke-miterlimit="10" stroke-width="2.5"/>
        <path id="路径_494" data-name="路径 494" d="M2758.223,59.085l8.038-6.474" transform="translate(-2715.123 -52.611)" fill="none" stroke="#fc981f" stroke-linecap="round" stroke-miterlimit="10" stroke-width="2.5"/>
        <path id="路径_495" data-name="路径 495" d="M2758.223,98.116l8.038-6.473" transform="translate(-2715.123 -53.411)" fill="none" stroke="#fc981f" stroke-linecap="round" stroke-miterlimit="10" stroke-width="2.5"/>
      </g>
      <g id="组_90" data-name="组 90" transform="translate(2791.629 52.573)">
        <path id="路径_496" data-name="路径 496" d="M2825.248,95.79l14.165-13.774" transform="translate(-2825.248 -35.545)" fill="none" stroke="#9158f6" stroke-linecap="round" stroke-miterlimit="10" stroke-width="2.5"/>
        <path id="路径_497" data-name="路径 497" d="M2841.931,60.275l9.226-9.4" transform="translate(-2825.59 -34.907)" fill="none" stroke="#9158f6" stroke-linecap="round" stroke-miterlimit="10" stroke-width="2.5"/>
        <path id="路径_498" data-name="路径 498" d="M2869.81,82.578l9.226-9.4" transform="translate(-2826.161 -35.364)" fill="none" stroke="#9158f6" stroke-linecap="round" stroke-miterlimit="10" stroke-width="2.5"/>
        <path id="路径_499" data-name="路径 499" d="M2882.6,41.559l6.986-6.986" transform="translate(-2826.423 -34.573)" fill="none" stroke="#9158f6" stroke-linecap="round" stroke-miterlimit="10" stroke-width="2.5"/>
      </g>
    </g>
  </g>
</svg>
