<svg xmlns="http://www.w3.org/2000/svg" width="1978.177" height="111.572" viewBox="0 0 1978.177 111.572">
  <g id="字母滾輪" transform="translate(-1337.997 -817.779)">
    <path id="路径_216" data-name="路径 216" d="M1409.309,857.446c-2.4-11.489-9.084-17.167-19.945-17.167-15.4,0-24.36,12.117-24.36,32.944,0,20.58,9.338,33.07,25,33.07,6.94,0,12.878-2.9,16.539-7.948,2.143-3.026,3.025-5.557,3.78-10.861l26.258,3.922c-2.4,10.727-5.17,16.912-10.473,23.1-7.829,8.964-20.073,13.76-35.349,13.76-15.4,0-28.4-4.8-37.365-13.887-9.338-9.464-14.641-24.24-14.641-41.152,0-17.166,5.3-31.681,15.276-41.534,8.71-8.456,21.454-13.125,36.231-13.125,16.284,0,29.029,5.557,37.237,16.538,4.041,5.177,6.186,9.845,7.821,17.293Z" transform="translate(0 0.212)" fill="none" stroke="#e5e5e5" stroke-width="1.5"/>
    <path id="路径_217" data-name="路径 217" d="M1450.022,818.886c-.763,5.184-1.016,9.853-1.016,18.69v67.656a133.306,133.306,0,0,0,1.016,18.683h-27.146a121.387,121.387,0,0,0,1.016-18.683V880.746h-42.542v24.487a130.076,130.076,0,0,0,1.009,18.683h-27.139c.756-5.176,1.009-9.845,1.009-18.683V837.576a123.4,123.4,0,0,0-1.009-18.69h27.139a135.85,135.85,0,0,0-1.009,18.69v20.946h42.542V837.576c0-8.718-.254-13.767-1.016-18.69Z" transform="translate(99.701 2.161)" fill="none" stroke="#e5e5e5" stroke-width="1.5"/>
    <path id="路径_218" data-name="路径 218" d="M1473.227,872.841c0,33.332-20.326,55.42-51,55.42-30.934,0-50.879-21.588-50.879-55.039,0-33.324,19.945-54.659,51-54.659S1473.227,839.771,1473.227,872.841Zm-26.258.254c0-20.447-9.346-32.817-24.621-32.817-15.4,0-24.868,12.49-24.868,32.817,0,20.573,9.471,33.331,24.868,33.331C1437.624,906.426,1446.969,893.8,1446.969,873.1Z" transform="translate(197.338 0.212)" fill="none" stroke="#e5e5e5" stroke-width="1.5"/>
    <path id="路径_219" data-name="路径 219" d="M1489.906,872.841c0,33.332-20.325,55.42-51,55.42-30.927,0-50.872-21.588-50.872-55.039,0-33.324,19.945-54.659,51-54.659S1489.906,839.771,1489.906,872.841Zm-26.257.254c0-20.447-9.338-32.817-24.615-32.817-15.4,0-24.868,12.49-24.868,32.817,0,20.573,9.465,33.331,24.868,33.331C1454.311,906.426,1463.649,893.8,1463.649,873.1Z" transform="translate(298.34 0.212)" fill="none" stroke="#e5e5e5" stroke-width="1.5"/>
    <path id="路径_220" data-name="路径 220" d="M1430.981,891.863c.5,4.549,1.39,6.82,3.279,9.346,3.033,3.787,8.33,5.931,14.776,5.931,9.719,0,15.523-4.288,15.523-11.363a9.492,9.492,0,0,0-5.3-8.836c-2.653-1.263-5.8-2.144-18.937-5.171-11.609-2.531-15.651-4.048-20.319-7.327-7.956-5.55-12.244-14.006-12.244-24.233,0-19.445,15.651-31.681,40.519-31.681,16.03,0,28.273,4.916,35.094,14.387,3.152,4.168,4.668,7.956,6.312,15.143l-26.765,2.905c-1.516-8.2-6.058-11.609-15.65-11.609-7.7,0-13.378,4.168-13.378,9.972,0,3.533,1.89,6.185,5.931,8.076,2.525,1.142,2.525,1.142,17.421,4.161,9.592,2.025,15.65,4.169,20.453,7.2,9.084,5.677,13.625,14.141,13.625,25.749,0,9.472-3.025,17.547-8.83,23.232-7.328,7.067-18.436,10.727-33.2,10.727-10.727,0-21.335-2.278-28.147-6.185a29.84,29.84,0,0,1-13.633-16.158c-1.263-3.032-1.9-5.931-2.78-11.736Z" transform="translate(399.342)" fill="none" stroke="#e5e5e5" stroke-width="1.5"/>
    <path id="路径_221" data-name="路径 221" d="M1498.9,925.554c-5.43-.628-9.979-.882-20.834-.882H1438.3c-9.591,0-13.124.12-18.555.374.762-5.042,1.008-9.711,1.008-18.429V837.7a133.164,133.164,0,0,0-1.008-18.436c5.177.262,8.71.381,18.555.381h40.272a154.3,154.3,0,0,0,18.81-.882v23.606a155.834,155.834,0,0,0-18.81-.882h-32.823v18.556h27.272a151.726,151.726,0,0,0,18.931-.882v23.352a155.008,155.008,0,0,0-18.931-.889h-27.272V902.83h32.57a170.335,170.335,0,0,0,20.579-.882Z" transform="translate(490.26 1.404)" fill="none" stroke="#e5e5e5" stroke-width="1.5"/>
    <path id="路径_222" data-name="路径 222" d="M1504.2,905.232a153.578,153.578,0,0,0,1.009,18.683h-27.521a167.378,167.378,0,0,0,1.01-18.683V881.881l-29.037-47.719c-2.27-3.914-5.049-8.076-10.091-15.276H1471.5a61.1,61.1,0,0,0,5.932,13.259l14.013,25.623,14.007-25.5c3.159-5.811,4.931-9.718,5.812-13.386H1543.2c-3.661,5.3-8.456,12.5-10.1,15.276l-28.9,47.719Z" transform="translate(610.232 2.161)" fill="none" stroke="#e5e5e5" stroke-width="1.5"/>
    <path id="路径_223" data-name="路径 223" d="M1556.749,872.841c0,33.332-20.326,55.42-51,55.42-30.934,0-50.879-21.588-50.879-55.039,0-33.324,19.945-54.659,51-54.659S1556.749,839.771,1556.749,872.841Zm-26.264.254c0-20.447-9.338-32.817-24.614-32.817-15.4,0-24.869,12.49-24.869,32.817,0,20.573,9.472,33.331,24.869,33.331C1521.147,906.426,1530.485,893.8,1530.485,873.1Z" transform="translate(702.881 0.212)" fill="none" stroke="#e5e5e5" stroke-width="1.5"/>
    <path id="路径_224" data-name="路径 224" d="M1568.8,818.886a125.816,125.816,0,0,0-1.015,19.064v43.43c0,28.776-17.287,45.06-47.712,45.06-15.65,0-28.4-4.422-35.977-12.37-7.32-7.829-11.108-18.81-11.108-32.95V837.95c0-8.71-.253-14.261-1.015-19.064h27.273c-.762,4.669-1.009,9.718-1.009,19.064v43.43c0,15.9,7.194,23.479,21.962,23.479,15.151,0,22.344-7.582,22.344-23.479V837.95a124.868,124.868,0,0,0-1.009-19.064Z" transform="translate(806.37 2.161)" fill="none" stroke="#e5e5e5" stroke-width="1.5"/>
    <path id="路径_225" data-name="路径 225" d="M1552.526,924.242c-.755-4.034-2.271-9.218-6.178-19.691-4.042-10.988-5.559-13.887-8.71-16.666-2.653-2.4-5.812-3.406-9.853-3.406h-12.871v20.707a133.618,133.618,0,0,0,1.008,19.056h-27.138a125.147,125.147,0,0,0,1.008-18.936V837.388a135.219,135.219,0,0,0-1.008-18.556c5.557.262,10.227.381,18.8.381h32.824c20.453,0,32.316,10.608,32.316,28.782,0,8.964-2.525,16.039-7.448,20.707-3.153,2.9-5.8,4.288-11.989,6.3,6.439,2.017,9.344,4.929,13.379,13.887,1.89,4.041,3.66,8.336,9.344,21.962,1.382,3.54,2.9,6.7,6.058,13.386ZM1534.605,862.9c7.448,0,11.99-4.548,11.99-11.75,0-7.059-4.041-10.727-11.863-10.727h-19.817V862.9Z" transform="translate(908.135 1.834)" fill="none" stroke="#e5e5e5" stroke-width="1.5"/>
    <path id="路径_226" data-name="路径 226" d="M1539.027,818.886c-.755,5.184-1.009,9.472-1.009,18.69v67.656a122.413,122.413,0,0,0,1.009,18.683h-27.773c.754-4.922,1.009-10.219,1.009-18.683V837.576c0-9.473-.254-13.133-1.009-18.69Z" transform="translate(1044.14 2.161)" fill="none" stroke="#e5e5e5" stroke-width="1.5"/>
    <path id="路径_227" data-name="路径 227" d="M1519.442,837.388a108.094,108.094,0,0,0-1.135-18.556c5.049.262,8.209.381,18.689.381h26.377c15.531,0,28.028,4.3,36.484,12.505,9.211,9.084,13.887,22.343,13.887,39.122,0,17.3-5.049,31.18-14.649,40.779-8.456,8.329-20.445,12.624-35.467,12.624H1537c-9.719,0-13.259.12-18.556.374a120.987,120.987,0,0,0,1-18.429Zm41.914,64.765c8.209,0,14.014-2.151,18.556-6.693,5.177-5.3,7.955-13.753,7.955-24.24,0-10.727-2.4-18.556-7.322-23.478-4.415-4.416-10.48-6.433-19.571-6.433h-16.539v60.844Z" transform="translate(1086.83 1.834)" fill="none" stroke="#e5e5e5" stroke-width="1.5"/>
    <path id="路径_228" data-name="路径 228" d="M1613.681,925.554c-5.43-.628-9.972-.882-20.827-.882h-39.763c-9.591,0-13.132.12-18.562.374.754-5.042,1.015-9.711,1.015-18.429V837.7a134.343,134.343,0,0,0-1.015-18.436c5.176.262,8.71.381,18.562.381h40.264a154.141,154.141,0,0,0,18.81-.882v23.606a155.748,155.748,0,0,0-18.81-.882h-32.816v18.556H1587.8a151.772,151.772,0,0,0,18.93-.882v23.352a154.975,154.975,0,0,0-18.93-.889h-27.265V902.83h32.569a170.208,170.208,0,0,0,20.573-.882Z" transform="translate(1185.018 1.404)" fill="none" stroke="#e5e5e5" stroke-width="1.5"/>
    <path id="路径_229" data-name="路径 229" d="M1608.819,870.512a171.817,171.817,0,0,1,9.091,15.022c-.5-5.8-.755-11.609-.755-18.676V838.077a137.6,137.6,0,0,0-1.015-19.191h26.893a136.5,136.5,0,0,0-1.017,19.191v67.029a153.688,153.688,0,0,0,1.017,18.81h-27.647a138.3,138.3,0,0,0-9.465-16.038l-23.358-35.214a150,150,0,0,1-9.091-15.523,179.547,179.547,0,0,1,.889,18.8v28.281a137.652,137.652,0,0,0,1.008,19.691h-26.892c.762-4.922,1.016-10.48,1.016-19.818V837.7a140.108,140.108,0,0,0-1.016-18.81h27.4c1.263,3.413,4.035,8.457,8.964,15.777Z" transform="translate(1269.434 2.161)" fill="none" stroke="#e5e5e5" stroke-width="1.5"/>
    <path id="路径_230" data-name="路径 230" d="M1624.014,905.616a144.135,144.135,0,0,0,1.009,19.056h-27.894a139.189,139.189,0,0,0,1.009-19.056v-63.63h-14.9a171.636,171.636,0,0,0-19.064.889V818.761a174.363,174.363,0,0,0,18.81.882h55.293a166.168,166.168,0,0,0,19.692-.882v24.114a161.842,161.842,0,0,0-19.692-.889h-14.267Z" transform="translate(1364.475 1.404)" fill="none" stroke="#e5e5e5" stroke-width="1.5"/>
    <path id="路径_231" data-name="路径 231" d="M1607.529,818.886c-.755,5.184-1.009,9.472-1.009,18.69v67.656a122.432,122.432,0,0,0,1.009,18.683h-27.774c.756-4.922,1.009-10.219,1.009-18.683V837.576c0-9.473-.253-13.133-1.009-18.69Z" transform="translate(1458.759 2.161)" fill="none" stroke="#e5e5e5" stroke-width="1.5"/>
    <path id="路径_232" data-name="路径 232" d="M1645.8,905.616a144.224,144.224,0,0,0,1.008,19.056h-27.893a139.305,139.305,0,0,0,1.007-19.056v-63.63h-14.895a171.612,171.612,0,0,0-19.063.889V818.761a174.325,174.325,0,0,0,18.809.882h55.294a166.062,166.062,0,0,0,19.691-.882v24.114a161.823,161.823,0,0,0-19.691-.889H1645.8Z" transform="translate(1496.364 1.404)" fill="none" stroke="#e5e5e5" stroke-width="1.5"/>
    <path id="路径_233" data-name="路径 233" d="M1665.191,905.232a153.587,153.587,0,0,0,1.016,18.683h-27.521a167.506,167.506,0,0,0,1.009-18.683V881.881l-29.029-47.719c-2.271-3.914-5.057-8.076-10.107-15.276H1632.5a61.122,61.122,0,0,0,5.931,13.259l14.014,25.623,14.015-25.5c3.152-5.811,4.915-9.718,5.8-13.386h31.942c-3.667,5.3-8.462,12.5-10.106,15.276l-28.909,47.719Z" transform="translate(1584.686 2.161)" fill="none" stroke="#e5e5e5" stroke-width="1.5"/>
    <path id="路径_234" data-name="路径 234" d="M1640.9,830.163v25.5h-25.5v-25.5Z" transform="translate(1674.526 70.418)" fill="none" stroke="#e5e5e5" stroke-width="1.5"/>
  </g>
</svg>
