<svg xmlns="http://www.w3.org/2000/svg" width="233.558" height="173.024" viewBox="0 0 233.558 173.024">
  <g id="组_100" data-name="组 100" transform="translate(1601.041 -1232.443)">
    <g id="组_98" data-name="组 98" transform="translate(-2056 -214)">
      <path id="路径_500" data-name="路径 500" d="M-559.537,1658.824a41.017,41.017,0,0,1-2.214-6.972c-4.188-19.081,8.791-36.214,27.245-40.209,11.839-2.563,24.577-1.365,35.051-8.431,15.885-10.716,7.574-27.093,16.814-40.2,4.5-6.385,12.1-10.553,19.365-12.96,13.372-4.429,31.53-6.7,43.959,1.334,10.264,6.634,16.362,17.972,22.49,28.161,5.84,9.71,16.945,20.239,18.639,31.659,3.17,21.36-20.564,35.163-17.417,56.09.7,4.672,1.683,9.456.666,14.07-5.924,26.875-48.091-5.2-59.435-10.016-11.957-5.073-23.886-6.536-35.286.323-9.641,5.8-17.439,15.737-29.143,17.452-10.985,1.61-21.556-5.106-29.195-13.162A57.414,57.414,0,0,1-559.537,1658.824Z" transform="translate(1303.615 7.437) rotate(9)" fill="#fdf8e7"/>
      <g id="组_92" data-name="组 92" transform="translate(-204.389 -1100.674) rotate(73)">
        <g id="组_89" data-name="组 89" transform="translate(2714.222 61.61)">
          <path id="路径_492" data-name="路径 492" d="M2714.222,130.855a9.15,9.15,0,0,1,5.872-6.456" transform="translate(-2714.222 -54.082)" fill="none" stroke="#fc981f" stroke-linecap="round" stroke-miterlimit="10" stroke-width="2.5"/>
          <path id="路径_493" data-name="路径 493" d="M2751.751,139.027l8.308-8.214" transform="translate(-2714.991 -54.213)" fill="none" stroke="#fc981f" stroke-linecap="round" stroke-miterlimit="10" stroke-width="2.5"/>
          <path id="路径_494" data-name="路径 494" d="M2758.223,59.085l8.038-6.474" transform="translate(-2739.123 -34.611)" fill="none" stroke="#fc981f" stroke-linecap="round" stroke-miterlimit="10" stroke-width="2.5"/>
          <path id="路径_495" data-name="路径 495" d="M2758.223,98.116l8.038-6.473" transform="translate(-2715.123 -53.411)" fill="none" stroke="#fc981f" stroke-linecap="round" stroke-miterlimit="10" stroke-width="2.5"/>
          <path id="路径_501" data-name="路径 501" d="M2758.223,98.116l8.038-6.473" transform="translate(-2739.123 -47.411)" fill="none" stroke="#fc981f" stroke-linecap="round" stroke-miterlimit="10" stroke-width="2.5"/>
        </g>
      </g>
    </g>
  </g>
</svg>
