<svg xmlns="http://www.w3.org/2000/svg" width="331.361" height="282.851" viewBox="0 0 331.361 282.851">
  <path id="路径_503" data-name="路径 503" d="M-557.781,1724.77a65.014,65.014,0,0,1-3.508-11.049c-6.637-30.238,13.931-57.388,43.176-63.719,18.762-4.062,38.947-2.164,55.546-13.361,25.174-16.981,12-42.934,26.645-63.7,7.133-10.119,19.171-16.723,30.688-20.538,21.191-7.019,49.966-10.616,69.663,2.114,16.266,10.512,25.93,28.481,35.64,44.626,9.255,15.388,26.852,32.072,29.538,50.171,5.023,33.85-32.588,55.723-27.6,88.886,1.114,7.4,2.668,14.985,1.056,22.3-9.387,42.588-76.211-8.246-94.189-15.873-18.949-8.04-37.853-10.358-55.918.511-15.278,9.193-27.635,24.939-46.184,27.657-17.408,2.551-34.16-8.091-46.265-20.859C-547.036,1743.977-553.588,1734.843-557.781,1724.77Z" transform="translate(891.331 -1410.299) rotate(11)" fill="#fad8d8"/>
</svg>
