<svg xmlns="http://www.w3.org/2000/svg" width="120" height="120" viewBox="0 0 120 120">
  <g id="组_135" data-name="组 135" transform="translate(-7470 -2678)">
    <circle id="椭圆_55" data-name="椭圆 55" cx="60" cy="60" r="60" transform="translate(7470 2678)" fill="#fce364"/>
    <g id="组_130" data-name="组 130" transform="translate(7501.785 2718.824)">
      <path id="路径_561" data-name="路径 561" d="M106.452,106h38.066a3.452,3.452,0,0,1,3.452,3.452v26.074a3.452,3.452,0,0,1-3.452,3.452H111.387l-8.387,6V109.452A3.452,3.452,0,0,1,106.452,106Z" transform="translate(-103 -106)" fill="none" stroke="#2f3031" stroke-linecap="round" stroke-linejoin="round" stroke-width="1.5"/>
      <path id="路径_562" data-name="路径 562" d="M118,140.98v1.045a3.452,3.452,0,0,0,3.452,3.452h22.782l8.243,6V114.452A3.452,3.452,0,0,0,149.025,111h-4.043" transform="translate(-95.515 -103.505)" fill="none" stroke="#2f3031" stroke-linecap="round" stroke-linejoin="round" stroke-width="1.5"/>
      <line id="直线_195" data-name="直线 195" x2="15" transform="translate(7.215 23.176)" fill="none" stroke="#2f3031" stroke-linecap="round" stroke-linejoin="round" stroke-width="1.5"/>
      <line id="直线_196" data-name="直线 196" x2="16" transform="translate(20.215 11.176)" fill="none" stroke="#2f3031" stroke-linecap="round" stroke-linejoin="round" stroke-width="1.5"/>
      <line id="直线_197" data-name="直线 197" x2="16" transform="translate(20.215 16.176)" fill="none" stroke="#2f3031" stroke-linecap="round" stroke-linejoin="round" stroke-width="1.5"/>
      <rect id="矩形_47" data-name="矩形 47" width="8" height="7" transform="translate(7.215 9.176)" fill="none" stroke="#2f3031" stroke-linecap="round" stroke-linejoin="round" stroke-width="1.5"/>
    </g>
  </g>
</svg>
