<?xml version="1.0" encoding="UTF-8"?>
<svg id="Layer_1" data-name="Layer 1" xmlns="http://www.w3.org/2000/svg" viewBox="0 0 195.33 76.93">
  <defs>
    <style>
      .cls-1 {
        fill: #93f;
      }

      .cls-1, .cls-2 {
        stroke-width: 0px;
      }

      .cls-2 {
        fill: #c06;
      }
    </style>
  </defs>
  <path id="_路径_575" data-name="路径 575" class="cls-1" d="m61.71,19.95h0c-8.05-8.04-21.09-8.04-29.13,0s-8.04,21.09,0,29.13l14.56,14.57,14.57-14.57c7.75-7.99,7.53-20.92,0-29.13m-6.94,6.5c-10.22.42-18.88,7.66-21.12,17.64l-2.44-2.44c1.92-5.67,6.01-10.35,11.38-13.01-2.77-.7-4.45-3.51-3.75-6.28.7-2.77,3.51-4.45,6.28-3.75s4.45,3.51,3.75,6.28c0,0,0,0,0,0-.17.69-.49,1.34-.93,1.9,2.42-.52,4.9-.63,7.36-.34-.18-.02-.36-.02-.54,0"/>
  <path id="_路径_576" data-name="路径 576" class="cls-2" d="m28.26,0c3.34,0,6.04,2.7,6.04,6.04s-2.7,6.04-6.04,6.04-6.04-2.7-6.04-6.04h0C22.22,2.7,24.93,0,28.26,0"/>
  <path id="_路径_577" data-name="路径 577" class="cls-2" d="m47.14,63.67l3.19-3.21-3.17-3.17-29.06-29.06c-.88-.88-2.31-.88-3.19,0l-.15.15c-.73.94-.63,2.27.22,3.09l29.02,29.01-2.7,2.7-7.36,7.36-24.71-24.65c-6.3-6.3-6.3-16.52,0-22.82,5.17-5.17,13.16-6.22,19.49-2.56.6-.78,1.25-1.52,1.95-2.22l.27-.27c.29-.29.61-.58.93-.88-9.56-6.2-22.34-3.48-28.54,6.09C-1.98,31.41-.84,42.17,6.05,49.06l27.87,27.87,11.81-11.82h-.03l1.44-1.44Z"/>
  <path id="_路径_586" data-name="路径 586" class="cls-1" d="m87.63,42.14c-.32-.28-.5-.69-.5-1.11v-8.71l-8.5-11.4c-.17-.29-.27-.62-.28-.96,0-.42.16-.83.46-1.13.29-.31.71-.49,1.14-.48.59-.01,1.15.28,1.46.79l7.4,10.35,7.4-10.35c.31-.5.87-.8,1.46-.79.42,0,.82.16,1.12.46.31.27.48.67.48,1.08-.02.36-.12.71-.28,1.03l-8.53,11.4v8.7c0,.42-.17.83-.48,1.11-.31.3-.72.47-1.16.46-.44,0-.86-.16-1.17-.46"/>
  <path id="_路径_587" data-name="路径 587" class="cls-1" d="m104.83,41.05c-1.58-1.07-2.83-2.56-3.61-4.29-1.8-3.99-1.8-8.55-.01-12.54.78-1.76,2.05-3.25,3.65-4.31,3.36-2.06,7.6-2.06,10.96,0,1.58,1.07,2.83,2.57,3.61,4.31,1.8,3.97,1.8,8.52.01,12.49-.79,1.77-2.06,3.27-3.67,4.34-1.62,1.05-3.52,1.59-5.45,1.55-1.94.04-3.86-.5-5.49-1.55m9.65-2.32c1.19-.82,2.12-1.96,2.7-3.28.66-1.51.98-3.13.95-4.78.03-1.63-.29-3.25-.93-4.75-.58-1.35-1.53-2.5-2.74-3.33-1.22-.8-2.66-1.22-4.13-1.19-1.48-.04-2.94.38-4.16,1.22-1.19.82-2.12,1.96-2.7,3.28-.65,1.51-.98,3.13-.95,4.78-.03,1.63.29,3.25.93,4.75.57,1.36,1.51,2.52,2.73,3.35,1.23.8,2.67,1.21,4.14,1.17,1.48.04,2.94-.38,4.16-1.22"/>
  <path id="_路径_588" data-name="路径 588" class="cls-1" d="m129.32,41.58c-1.61-.65-3-1.76-3.99-3.19-1.01-1.49-1.53-3.25-1.49-5.05v-13.39c0-.43.18-.83.49-1.12.31-.31.74-.48,1.18-.48.45,0,.88.17,1.2.48.33.28.51.69.51,1.12v13.5c-.05,1.22.31,2.43,1.02,3.42.64.93,1.52,1.67,2.56,2.12,1.1.49,2.3.74,3.5.73,1.2,0,2.39-.23,3.48-.71,1.08-.45,2-1.21,2.65-2.18.64-1.01.97-2.18.94-3.38v-13.5c0-.43.18-.83.49-1.12.31-.31.74-.48,1.18-.48.45,0,.88.17,1.2.48.33.28.51.69.51,1.12v13.39c.05,1.83-.48,3.62-1.52,5.12-.99,1.35-2.32,2.42-3.86,3.08-3.2,1.39-6.83,1.4-10.04.03"/>
  <path id="_路径_589" data-name="路径 589" class="cls-1" d="m149.89,42.14c-.3-.29-.47-.69-.46-1.11v-20.39c0-.6.24-1.18.67-1.61.41-.44.99-.69,1.59-.68h.44c.77.02,1.48.4,1.92,1.03l12.63,18.2c.11.14.21.21.27.21.05,0,.09-.03.14-.1.05-.07.07-.15.07-.24v-17.48c0-.42.16-.83.46-1.13.29-.31.69-.48,1.11-.48.88.01,1.59.72,1.61,1.61v20.38c0,.6-.24,1.18-.68,1.59-.42.43-1,.67-1.61.67h-.41c-.36,0-.72-.09-1.04-.26-.32-.16-.59-.39-.8-.67l-12.69-18.3c-.11-.14-.21-.21-.27-.21-.05,0-.09.03-.14.1-.05.07-.07.15-.07.24v17.52c0,.42-.17.83-.48,1.11-.3.3-.71.46-1.13.46-.42,0-.82-.16-1.11-.46"/>
  <path id="_路径_590" data-name="路径 590" class="cls-1" d="m179.9,41.05c-1.79-1-3.25-2.49-4.21-4.29-1.01-1.92-1.52-4.07-1.48-6.25-.04-2.21.49-4.39,1.55-6.33.99-1.8,2.46-3.28,4.25-4.29,1.82-1.03,3.88-1.56,5.97-1.53,1.51-.02,3.02.18,4.47.61,1.38.43,2.7,1.05,3.93,1.82.22.1.39.27.51.49.13.23.2.49.2.76,0,.78-.63,1.41-1.41,1.41-.01,0-.03,0-.04,0-.25,0-.49-.07-.71-.17-1.01-.6-2.08-1.07-3.2-1.41-1.11-.32-2.25-.48-3.41-.47-1.6,0-3.19.36-4.62,1.08-1.37.72-2.49,1.83-3.22,3.2-.78,1.5-1.17,3.16-1.13,4.85-.02,1.63.36,3.24,1.11,4.68.72,1.39,1.83,2.53,3.2,3.28,1.48.79,3.14,1.19,4.82,1.16,2.05,0,4.07-.5,5.87-1.48v-5.62c.03-.2-.11-.38-.3-.4-.03,0-.07,0-.1,0h-5.12c-.78,0-1.41-.63-1.41-1.41s.63-1.41,1.41-1.41h6.65c.91,0,1.64.74,1.65,1.65v7.64c0,.44-.11.88-.34,1.26-.23.38-.57.68-.98.86-2.39,1.22-5.04,1.86-7.72,1.89-2.16.04-4.29-.49-6.16-1.55"/>
  <path class="cls-1" d="m84.33,47.26c0,.35-.14.73-.38,1.13-1.55,2.9-3.02,5.17-4.44,6.81-.22.13-.42.18-.62.18-.64,0-.94-.31-.94-.95,0-.22.08-.44.24-.69,1.75-2.12,3.26-4.47,4.5-6.99.16-.29.4-.44.7-.44.62,0,.93.33.93.95Zm7.2,5.75c.16.18.26.35.26.55s-.04.4-.08.62c-.62,1.83-1.31,3.34-2.07,4.49-.54.84-1.09,1.57-1.69,2.19.83.66,1.93,1.28,3.26,1.88.92.49,2.13.97,3.68,1.46.42.18.64.49.64.95,0,.69-.3,1.04-.86,1.04-.12,0-.28-.04-.52-.11-1.89-.73-3.4-1.42-4.52-2.03-1.17-.6-2.17-1.24-3-1.95-.78.62-1.61,1.22-2.51,1.75-1.21.73-2.79,1.42-4.7,2.08-.24.04-.48.09-.7.09s-.4-.09-.56-.27-.22-.38-.22-.6c0-.44.14-.73.46-.86,1.83-.6,3.34-1.24,4.52-1.95.84-.49,1.59-1,2.27-1.53-.6-.64-1.15-1.39-1.67-2.25-.88-1.37-1.53-2.85-1.99-4.47,0-.58.28-.86.83-.86.36,0,.6.2.72.6.64,1.7,1.31,3.1,2.07,4.16.4.6.86,1.15,1.37,1.64.6-.62,1.17-1.33,1.71-2.12.74-1.06,1.39-2.45,1.99-4.18.12-.35.34-.53.7-.53.22,0,.42.09.6.22Zm-1.53-6.43c.88.93,1.67,1.83,2.39,2.7.84.97,1.85,2.39,3.06,4.29.1.2.16.4.16.62,0,.58-.32.86-.94.86-.28,0-.52-.09-.7-.26-1.15-1.75-2.11-3.12-2.91-4.13-.68-.84-1.41-1.7-2.23-2.61-.22-.22-.32-.44-.32-.69,0-.62.28-.95.86-.95.16,0,.36.07.62.18Z"/>
  <path class="cls-1" d="m113.09,46.4c.88,0,1.33.49,1.33,1.46,0,.58-.16,2.25-.46,5.02-.04.35-.08.71-.1,1.04h1.33c.52,0,.78.29.78.86s-.26.86-.78.86h-1.53c-.24,1.95-.5,3.82-.78,5.59-.02.09-.04.15-.04.2h1.57c.56,0,.86.29.86.86s-.3.86-.86.86h-1.87c-.28,1.24-.56,2.03-.84,2.39-.42.46-1,.71-1.73.71-.96,0-1.81-.11-2.57-.33-.52-.18-.78-.51-.78-1.04,0-.64.28-.95.86-.95,1.07.29,1.83.44,2.25.44.48,0,.8-.4.96-1.22h-11.68c-.84,0-1.23-.38-1.23-1.13,0-.35.04-.73.14-1.11.48-2.17.82-3.91,1.05-5.28h-1.27c-.52,0-.78-.29-.78-.86s.26-.86.78-.86h1.55c.22-1.59.42-3.54.62-5.88.12-1.08.68-1.64,1.63-1.64h11.58Zm-1.17,9.66c0-.13.02-.29.06-.42h-11.24c-.26,1.81-.54,3.63-.86,5.44,0,.24.12.35.4.35h10.8c.3-1.55.58-3.34.84-5.37Zm.26-2.14c.2-1.86.36-3.58.46-5.2,0-.4-.18-.6-.54-.6h-9.81c-.48,0-.74.26-.78.77-.16,1.66-.34,3.34-.56,5.02h11.22Zm-6.31,2.76c.68.75,1.23,1.57,1.71,2.5.04.27.08.49.08.69,0,.53-.32.8-.94.8-.32,0-.54-.22-.7-.71-.5-1.04-1.01-1.88-1.55-2.5-.06-.22-.08-.38-.08-.51,0-.4.26-.62.78-.62.24,0,.48.13.7.35Zm.62-7.34c.58.71,1.07,1.48,1.49,2.32.04.27.08.49.08.71,0,.53-.32.77-.93.77-.32,0-.56-.22-.7-.71-.44-.97-.88-1.75-1.33-2.32-.06-.22-.08-.38-.08-.51,0-.4.26-.62.78-.62.24,0,.48.13.7.35Z"/>
  <path class="cls-1" d="m122.42,51.07c0,.13-.1.24-.26.38-.4.29-.92.6-1.59.91-.84.4-1.63.69-2.35.91-.12.04-.22.07-.3.07-.52,0-.78-.29-.78-.88,0-.49.18-.8.54-.95.72-.15,1.29-.31,1.75-.49.44-.13,1.07-.4,1.91-.8l.3-.09c.52,0,.78.33.78.95Zm.24-3.21c0,.53-.24.8-.7.8h-3.82c-.48,0-.7-.27-.7-.8s.22-.77.7-.77h3.82c.46,0,.7.26.7.77Zm10.27,5.88c.88,0,1.31.46,1.31,1.39v6.39c0,.93-.44,1.37-1.31,1.37h-3.42s.08.02.12.02c1.53.35,3.24.86,5.15,1.53.36.22.56.46.56.71,0,.69-.26,1.04-.78,1.04-.12,0-.3-.04-.56-.13-1.85-.71-3.68-1.3-5.51-1.77-.32-.13-.48-.35-.48-.71s.12-.58.36-.69h-3.9c.24.13.36.38.36.77,0,.2-.1.4-.3.62-1.33.66-3.2,1.26-5.61,1.81-.28.04-.46.09-.54.09-.58,0-.86-.33-.86-.95,0-.22.12-.46.4-.71,2.23-.44,4.12-.97,5.67-1.64h-3.82c-.88,0-1.31-.44-1.31-1.37v-6.39c0-.93.44-1.39,1.31-1.39h13.15Zm-.24,2.68v-.51c0-.4-.16-.62-.48-.62h-11.72c-.32,0-.48.22-.48.62v.51h12.67Zm0,2.34v-.86h-12.67v.86h12.67Zm0,1.97v-.51h-12.67v.51c0,.42.16.62.48.62h11.72c.32,0,.48-.2.48-.62Zm-6.69-14.33c-.02.18-.04.31-.06.44h7.9c.94,0,1.41.53,1.41,1.55,0,.18-.04.38-.08.6-.1.4-.24.84-.4,1.3-.22.29-.46.42-.7.42-.58,0-.86-.24-.86-.77,0-.09.02-.2.08-.33.14-.2.26-.38.34-.55.04-.04.06-.11.06-.16,0-.44-.16-.69-.48-.69h-3.72v1.3c0,.22.16.46.48.75.36.31.89.58,1.59.77.6.22,1.61.4,3.04.53.48.07.72.35.72.86-.04.51-.28.77-.72.8-1.63-.16-2.79-.35-3.46-.62-.8-.24-1.39-.55-1.81-.93-.36-.33-.54-.62-.54-.88,0,.27-.18.55-.52.88-.36.38-.86.69-1.53.93-.68.26-1.85.46-3.56.62-.5-.02-.76-.29-.78-.8,0-.44.22-.73.7-.86,1.51-.13,2.59-.31,3.18-.53.58-.2,1.04-.46,1.35-.77.28-.29.44-.53.44-.75v-1.3h-2.51c-.02.07-.04.11-.04.13-.26.6-.68,1.15-1.25,1.68-.24.24-.48.35-.7.35-.52,0-.78-.24-.78-.77,0-.09.02-.24.08-.44.56-.4.96-.84,1.19-1.28.2-.4.36-.88.44-1.48,0-.51.22-.77.7-.77.52,0,.78.27.78.77Z"/>
  <path class="cls-1" d="m141.01,57.96c0,.15-.06.4-.14.71-.48,1.66-.96,3.01-1.43,4.02-.46,1-.86,1.7-1.17,2.17-.16.18-.32.29-.44.29-.64,0-.93-.33-.93-.95,0-.09.04-.24.16-.55.46-.73.83-1.44,1.11-2.1.44-.97.89-2.28,1.37-3.91.12-.35.34-.53.62-.53.56.02.84.31.86.86Zm-2.11-6.3c.64.62,1.23,1.3,1.79,2.08.04.18.08.31.08.44,0,.58-.3.86-.86.86-.16,0-.32-.04-.46-.18-.58-.71-1.17-1.42-1.79-2.08-.12-.2-.16-.33-.16-.42,0-.62.3-.95.94-.95.16,0,.3.09.46.24Zm.4-5.44c.66.57,1.27,1.24,1.87,1.99.04.18.08.31.08.44,0,.58-.3.86-.86.86-.16,0-.32-.04-.48-.18-.6-.69-1.21-1.35-1.87-1.99-.1-.2-.14-.35-.14-.44,0-.62.3-.95.92-.95.16,0,.32.09.48.27Zm15.94.95c0,.53-.24.77-.72.77h-4.42v1.72h2.49c1.03,0,1.55.55,1.55,1.66v5.35c0,1.11-.52,1.64-1.55,1.64h-2.33v5.62c0,1.33-.76,1.99-2.27,1.99-.34,0-.78-.13-1.31-.35-.42-.15-.62-.44-.62-.86,0-.62.24-.91.7-.95.04,0,.1.02.2.04.52.22.88.31,1.04.31.42,0,.64-.18.64-.53v-5.26h-2.41c-1,0-1.49-.53-1.49-1.64v-5.35c0-1.11.5-1.66,1.49-1.66h2.17v-1.72h-4.36c-.36,0-.54.24-.54.71v5.77c0,1.66-.12,3.23-.32,4.73-.16,1.11-.4,2.23-.76,3.43-.28.84-.54,1.5-.8,2.03-.22.4-.46.62-.7.62-.5-.04-.76-.33-.78-.86,0-.09.04-.27.12-.49.3-.69.56-1.35.76-2.01.3-.95.54-1.99.7-3.09.2-1.28.3-2.74.3-4.36v-6.48c0-1.02.46-1.55,1.39-1.55h11.1c.48,0,.72.26.72.77Zm-8.63,13.04c0,.18-.04.38-.08.6-.48,1.55-1.15,2.96-2.01,4.25-.18.27-.44.42-.78.42-.58,0-.86-.24-.86-.69,0-.22.02-.42.06-.6.96-1.28,1.67-2.67,2.19-4.16.08-.33.3-.51.7-.51.52,0,.78.24.78.69Zm6.07-7.08v-1.22c0-.44-.22-.69-.64-.69h-5.27c-.36,0-.54.24-.54.69v1.22h6.45Zm0,2.94v-1.48h-6.45v1.48c0,.46.18.69.54.69h5.27c.42,0,.64-.22.64-.69Zm.46,3.69c.36.58.7,1.13,1.01,1.64.36.6.8,1.46,1.31,2.61.04.16.08.33.08.51,0,.51-.26.77-.78.77-.24,0-.46-.07-.62-.16-.48-1.06-.88-1.88-1.19-2.5-.28-.51-.58-1.04-.92-1.57-.16-.2-.22-.4-.22-.6,0-.58.26-.86.78-.86.14,0,.32.07.54.15Z"/>
  <path class="cls-1" d="m174.04,47.62c0,.58-.26.86-.78.86h-6.31v8.62h7.54c.52,0,.78.29.78.86s-.26.88-.78.88h-7.54v6.46c0,.62-.28.95-.84.95s-.86-.33-.86-.95v-6.46h-7.46c-.54,0-.8-.29-.8-.88s.26-.86.8-.86h7.46v-8.62h-6.55c-.52,0-.78-.29-.78-.86s.26-.86.78-.86h14.54c.52,0,.78.29.78.86Zm-14.39,2.23c.54.62,1.03,1.19,1.47,1.77.5.64,1.11,1.57,1.87,2.81.1.18.16.35.16.53,0,.57-.3.86-.86.86-.28,0-.5-.04-.7-.18-.7-1.13-1.27-2.01-1.75-2.65-.42-.53-.88-1.08-1.35-1.66-.22-.22-.32-.46-.32-.71,0-.62.28-.95.86-.95.16,0,.36.07.62.18Zm14.31.71c0,.31-.14.64-.38,1.02-1.03,1.72-2.01,3.09-2.96,4.07-.22.13-.42.18-.62.18-.58,0-.86-.29-.86-.86,0-.22.04-.46.16-.71,1.19-1.28,2.23-2.67,3.1-4.22.16-.27.4-.42.7-.42.56,0,.86.33.86.95Z"/>
  <path class="cls-1" d="m184.51,46.16c.16.2.26.42.26.69,0,.22-.06.42-.16.6-.66,1.15-1.37,2.28-2.15,3.34-.4.53-.82,1.02-1.27,1.5,3.74-.13,7.16-.38,10.25-.73-.12-.13-.2-.24-.28-.35-.64-.73-1.35-1.5-2.11-2.3-.22-.22-.32-.44-.32-.69,0-.57.26-.86.78-.86.16,0,.36.07.64.18.82.82,1.55,1.61,2.23,2.37.78.84,1.73,2.1,2.89,3.76.04.2.08.4.08.6,0,.53-.3.8-.86.8-.24,0-.46-.04-.62-.18-.46-.66-.88-1.24-1.23-1.75-.06.02-.12.02-.16.02-5.27.58-10.31.97-15.08,1.19-.52,0-.78-.35-.78-1.11,0-.55.26-.84.78-.86.56,0,1.09,0,1.63-.02.64-.69,1.19-1.37,1.71-2.08.9-1.28,1.73-2.63,2.49-4.05.16-.22.38-.33.7-.33.22,0,.42.09.6.27Zm7.18,9.93c1.19,0,1.79.64,1.79,1.88v5.7c0,1.26-.6,1.9-1.79,1.9h-11.12c-1.15,0-1.71-.64-1.71-1.9v-5.7c0-1.24.56-1.88,1.71-1.88h11.12Zm.14,6.9v-4.31c0-.57-.26-.86-.78-.86h-9.87c-.48,0-.7.29-.7.86v4.31c0,.58.22.86.7.86h9.87c.52,0,.78-.29.78-.86Z"/>
</svg>