<svg xmlns="http://www.w3.org/2000/svg" width="216.832" height="76.927" viewBox="0 0 216.832 76.927">
  <g id="组_243" data-name="组 243" transform="translate(1822 334.001)">
    <path id="路径_575" data-name="路径 575" d="M77.032,27.988h0A20.6,20.6,0,0,0,47.9,57.122L62.465,71.689,77.032,57.122c7.746-7.99,7.527-20.925,0-29.134m-6.943,6.5A22.6,22.6,0,0,0,48.97,52.128l-2.436-2.436A22.617,22.617,0,0,1,57.91,36.684a5.176,5.176,0,1,1,6.284-3.751,5.113,5.113,0,0,1-.926,1.9,22.6,22.6,0,0,1,7.356-.341,1.944,1.944,0,0,0-.536,0" transform="translate(-1837.326 -342.038)" fill="#93f"/>
    <path id="路径_576" data-name="路径 576" d="M41.09,0A6.041,6.041,0,1,1,35.049,6.04,6.041,6.041,0,0,1,41.09,0" transform="translate(-1834.829 -334)" fill="#c06"/>
    <path id="路径_577" data-name="路径 577" d="M47.139,71.663l3.191-3.215-3.167-3.167L18.1,36.22a2.263,2.263,0,0,0-3.191,0l-.146.146a2.319,2.319,0,0,0,.219,3.094L44,68.472l-2.7,2.7-7.356,7.357L9.236,53.881A16.137,16.137,0,0,1,28.723,28.5a23.945,23.945,0,0,1,1.949-2.217l.268-.268c.292-.292.609-.585.926-.877A20.638,20.638,0,0,0,6.045,57.048L33.912,84.915,45.726,73.1H45.7Z" transform="translate(-1822 -341.988)" fill="#c06"/>
    <path id="路径_578" data-name="路径 578" d="M122.788,70.077q-.846,0-.846-.773t.846-.773h5.075q.846,0,.846.773t-.846.773Zm-.262-3.672q0-.773.866-.773H127.2q.846,0,.846.773t-.846.773h-3.807q-.866,0-.866-.773m5.086,11.08a1.658,1.658,0,0,1,.352,1.331v2.878a1.961,1.961,0,0,1-.4,1.374,1.555,1.555,0,0,1-1.269.387h-2.034a1.791,1.791,0,0,1-1.319-.418,1.642,1.642,0,0,1-.332-1.342V78.816q-.162-1.91,1.652-1.739h2.034a1.823,1.823,0,0,1,1.319.408m.332-5.346q0,.772-.846.773h-3.666q-.826,0-.826-.773,0-.751.826-.752H127.1q.846,0,.846.752m0,2.877q0,.752-.846.751h-3.666q-.826,0-.826-.772,0-.752.826-.752H127.1q.846,0,.846.773m-1.39,3.994a.381.381,0,0,0-.463-.472H124.46a.486.486,0,0,0-.352.1.568.568,0,0,0-.091.376V81.5a.616.616,0,0,0,.091.387.452.452,0,0,0,.352.107h1.632a.489.489,0,0,0,.363-.107.568.568,0,0,0,.1-.387Zm2.337-4.209q-.766,0-.766-.858a2.974,2.974,0,0,1,.685-1.1l.786-1.009q.725-.944,1.128-.945.7,0,.7.666a6.069,6.069,0,0,1-1.088,1.89q-.966,1.353-1.45,1.352m-.222-7.987a.564.564,0,0,1-.06-.236.67.67,0,0,1,.765-.751q.3,0,1.108.794a1.987,1.987,0,0,1,.745,1.224q0,.795-.745.795-.343,0-1.047-.837a5.919,5.919,0,0,1-.766-.988m11.642,9.1q0,.945-.765.945a3.628,3.628,0,0,1-2.2-1.331,9.44,9.44,0,0,1-2.135-3.35h-.08a6.778,6.778,0,0,1-2.6,3.5,6.13,6.13,0,0,1-3,1.353q-.745,0-.745-.816,0-.58.826-.837,4.572-1.482,4.854-6.721h-1.289q-1.068,2.083-1.571,2.083-.706,0-.7-.816a1.44,1.44,0,0,1,.3-.709,15.514,15.514,0,0,0,1.752-3.564,1.94,1.94,0,0,1,.373-.72.655.655,0,0,1,.493-.225q.745,0,.745.666a5.885,5.885,0,0,1-.685,1.8h4.733q1.47,0,1.471,1.052a11.178,11.178,0,0,1-.987,2.405q-.544,1.116-1.048,1.116-.765,0-.765-.709a3.011,3.011,0,0,1,.484-1.073,3.339,3.339,0,0,0,.5-1.1c0-.143-.088-.215-.262-.215H135.78l-.161,1.525a7.534,7.534,0,0,0,3.927,4.831q.765.344.765.9m-1.632,1.277a1.769,1.769,0,0,1,.363,1.342v3.307a1.962,1.962,0,0,1-.393,1.353,1.5,1.5,0,0,1-1.239.386h-5.66a1.435,1.435,0,0,1-1.651-1.739V78.537a2.041,2.041,0,0,1,.392-1.4,1.476,1.476,0,0,1,1.259-.365h5.66a1.693,1.693,0,0,1,1.269.418m-1.128,2.135q0-.788-.681-.788h-3.813q-.682,0-.682.788v1.941q0,.787.682.788h3.813q.682,0,.681-.788Z" transform="translate(-1866.636 -357.686)" fill="#93f"/>
    <path id="路径_579" data-name="路径 579" d="M161.227,69.933q-.9,0-.9-.792t.9-.792h5.42q.94,0,.941.792t-.941.792Zm-.163-3.608q0-.792.92-.792h4.05q.94,0,.941.792t-.941.792h-4.05q-.92,0-.92-.792m5.624,5.569q0,.772-.9.772H162q-.88,0-.88-.793,0-.75.88-.751h3.783q.9,0,.9.772m.143,2.816q0,.751-.9.751H162q-.88,0-.88-.751,0-.792.88-.792h3.927q.9,0,.9.792m0,3.651V81.2a1.5,1.5,0,0,1-1.677,1.711h-2.291a1.694,1.694,0,0,1-1.247-.428,1.676,1.676,0,0,1-.43-1.241V78.361a1.488,1.488,0,0,1,1.677-1.69h2.291a1.488,1.488,0,0,1,1.677,1.69m-1.513.271a.438.438,0,0,0-.491-.5h-1.636a.471.471,0,0,0-.512.5v2.295a.456.456,0,0,0,.512.521h1.636c.3,0,.463-.174.491-.521Zm13.172-9.137q0,.585-.042,1.752-.041.793-.041,1.21-.04,1.919-.081,2.962a32.482,32.482,0,0,1-.757,6.591q-.491,1.565-3.416,1.565-1.084,0-1.084-.9,0-.877,1.207-.877a2.937,2.937,0,0,0,1.257-.229,1.131,1.131,0,0,0,.624-.772,21.091,21.091,0,0,0,.419-3.515q.173-2.639.337-7.311a.684.684,0,0,0-.214-.595,1,1,0,0,0-.665-.2h-6.258q-1.6,3.359-2.332,3.358-.7,0-.7-.772a.617.617,0,0,1,.082-.281c.055-.1.123-.219.2-.344a18.015,18.015,0,0,0,2.393-5.674q.2-.771.859-.772.84,0,.839.751a2.612,2.612,0,0,1-.226.918l-.429,1.231h5.993q2.025,0,2.025,1.9m-4.029,10.43a1.622,1.622,0,0,1-1.289.375h-3.109a1.8,1.8,0,0,1-1.309-.406,1.668,1.668,0,0,1-.368-1.3V72.874a1.85,1.85,0,0,1,.41-1.335,1.59,1.59,0,0,1,1.267-.375h3.109a1.831,1.831,0,0,1,1.329.406,1.671,1.671,0,0,1,.369,1.3V78.59a1.852,1.852,0,0,1-.41,1.335m-4.581-4.985H173V73.271a.566.566,0,0,0-.573-.647h-1.978q-.553,0-.572.647Zm3.456,3.254V76.357h-3.456v1.836a.6.6,0,0,0,.633.668H172.7q.592,0,.634-.668" transform="translate(-1880.686 -357.682)" fill="#93f"/>
    <path id="路径_580" data-name="路径 580" d="M201.922,82.62q0-.886.844-.886h.642a.652.652,0,0,0,.5-.195.867.867,0,0,0,.2-.562V76.112H201.3a18.6,18.6,0,0,1-.663,5.254,5.371,5.371,0,0,1-.663,1.438.948.948,0,0,1-.744.465.756.756,0,0,1-.844-.865,3.575,3.575,0,0,1,.4-1.1,15.861,15.861,0,0,0,1.025-6.227l.02-8.3q0-2.011,1.709-2.011h2.431a1.777,1.777,0,0,1,1.336.432,1.838,1.838,0,0,1,.371,1.384V81.258a2.364,2.364,0,0,1-.6,1.773,1.8,1.8,0,0,1-1.447.476h-.844a.774.774,0,0,1-.864-.887m2.19-15.677a.6.6,0,0,0-.161-.444.6.6,0,0,0-.443-.162h-1.567q-.623,0-.623.735l.02,2.616h2.774Zm0,4.26h-2.774V74.6h2.774Zm2.975,11.4V66.727a2.254,2.254,0,0,1,.422-1.514,1.589,1.589,0,0,1,1.367-.411H214.1a1.6,1.6,0,0,1,1.377.389,1.947,1.947,0,0,1,.412,1.47v1.947a2.272,2.272,0,0,1-.763,1.924,5.952,5.952,0,0,1-3.176.562q-1.006,0-1-.908t1.467-.908a4.626,4.626,0,0,0,1.608-.195q.261-.087.261-.67v-1.19q0-.734-.624-.735h-4.281a.652.652,0,0,0-.5.195.865.865,0,0,0-.2.562v4.693H214.7q1.467,0,1.467,1.125a8.983,8.983,0,0,1-.8,2.941,19.79,19.79,0,0,1-1.83,3.5,10.071,10.071,0,0,0,2.673,2.055.962.962,0,0,1,.543.886,1.019,1.019,0,0,1-.322.735.755.755,0,0,1-.522.26q-1.065,0-3.376-2.552-2.07,2.486-2.934,2.486-.744,0-.744-.93,0-.368,1.106-1.3a13.279,13.279,0,0,0,1.568-1.557,10.321,10.321,0,0,1-1.427-2.7,7.162,7.162,0,0,1-.543-2.1q0-.649.8-.649a.643.643,0,0,1,.583.281l.563,1.729a8.648,8.648,0,0,0,1,2.011,21.36,21.36,0,0,0,1.266-2.422,6.734,6.734,0,0,0,.623-1.859c0-.216-.128-.325-.382-.325h-5.346V82.6q0,1.037-.8,1.038-.784,0-.784-1.038" transform="translate(-1894.616 -357.705)" fill="#93f"/>
    <path id="路径_581" data-name="路径 581" d="M237.891,82.766a.724.724,0,0,1,.824-.814h.8q.682,0,.723-.752V75.522a16.323,16.323,0,0,1-1.567,3.11q-.943,1.462-1.345,1.461-.723,0-.722-.856,0-.313.823-1.294a12.442,12.442,0,0,0,2.469-4.572H237.49q-.783,0-.783-.73t.783-.73h6.384q1.245,0,1.244.814a7.666,7.666,0,0,1-.9,2.046q-.9,1.691-1.285,1.691-.784,0-.783-.689a3.711,3.711,0,0,1,.583-1.085,2.947,2.947,0,0,0,.562-1.148c0-.111-.067-.167-.2-.167h-1.385v8.142q.16,2.192-1.968,2.066h-1.023a.724.724,0,0,1-.824-.814m2.449-11.44A14.031,14.031,0,0,0,239.3,70.3q-.542-.458-.884-.71-.6-.438-.6-.772a.606.606,0,0,1,.682-.688q.522,0,2.027,1.315,1.968-1.941,1.968-2.338,0-.1-.321-.1h-4.518q-.8,0-.8-.73t.8-.73h5.7q1.327,0,1.326.9a.654.654,0,0,1-.111.345c-.073.119-.191.281-.351.491a32.008,32.008,0,0,1-2.771,2.985q.642.6.643.939,0,.71-.783.71a1.523,1.523,0,0,1-.964-.585M248.933,82.7q0-.793.743-.793l.964.042q1,.02,1.285-.564a8.933,8.933,0,0,0,.462-2.443l.041-.585q.04-.5-.562-.5h-2.57a6.531,6.531,0,0,1-3.794,5.094,4.633,4.633,0,0,1-1.686.584q-.7,0-.7-.918,0-.5.763-.751a5.577,5.577,0,0,0,3.955-4.009h-2.972q-.8,0-.8-.73t.8-.731h3.092l.019-.313a4.067,4.067,0,0,1,.182-1.294c.081-.153.287-.229.622-.229q.783,0,.783.688l-.081,1.085V76.4h2.911q1.606,0,1.606,1.419a12.727,12.727,0,0,1-.541,4.2q-.583,1.565-2.931,1.565-1.587,0-1.587-.877M244.5,74.916a.64.64,0,0,1,.261-.585q.141-.083,1.285-.5a7.91,7.91,0,0,0,2.47-1.4,9.2,9.2,0,0,1-1.948-3.424q-1.346,2.13-1.927,2.129-.7,0-.7-.772a1.059,1.059,0,0,1,.361-.689A11.721,11.721,0,0,0,246.7,65.4a.839.839,0,0,1,.823-.688q.764,0,.763.688a5.789,5.789,0,0,1-.5,1.4h6.344q.823,0,.823.772,0,.752-.823.752h-1.164a11.156,11.156,0,0,1-2.249,4.029A17.316,17.316,0,0,0,254.254,74q.722.25.723.835,0,.876-.783.876a6.606,6.606,0,0,1-2.049-.751,13.243,13.243,0,0,1-2.549-1.524,17.98,17.98,0,0,1-2.529,1.587,5.227,5.227,0,0,1-1.887.709q-.684,0-.683-.814m6.786-6.6h-3.594a7.082,7.082,0,0,0,1.887,3.152,7.335,7.335,0,0,0,1.707-3.152" transform="translate(-1908.607 -357.686)" fill="#93f"/>
    <path id="路径_582" data-name="路径 582" d="M293.2,75.978q0,.863-1.007.863h-7.356v5.732a1.325,1.325,0,0,1-.216.841.836.836,0,0,1-.688.266q-.9,0-.9-1.107V76.842h-7.213a1.1,1.1,0,0,1-.749-.21.828.828,0,0,1-.237-.653q0-.862.986-.863h7.213V66.528H276.8q-.945,0-.945-.863t.945-.863H291q1.008,0,1.007.863T291,66.528h-6.164v8.587h7.356q1.008,0,1.007.863M278.137,72.5q-.329-.93-.884-2.235a7.674,7.674,0,0,1-.288-.741,1.8,1.8,0,0,1-.1-.52.635.635,0,0,1,.235-.509.879.879,0,0,1,.585-.2.838.838,0,0,1,.576.221,2.322,2.322,0,0,1,.472.664,15.117,15.117,0,0,1,1.418,3.563.814.814,0,0,1-.3.664,1.032,1.032,0,0,1-.668.243q-.636,0-1.047-1.151m12.739-4.161a.736.736,0,0,1,.267.6,12.755,12.755,0,0,1-1.172,3.3q-.615,1.372-1.172,1.372a1.152,1.152,0,0,1-.749-.2.793.793,0,0,1-.236-.642,2.39,2.39,0,0,1,.307-.929l1.213-3.032q.308-.686.8-.686a1.128,1.128,0,0,1,.741.221" transform="translate(-1922.598 -357.72)" fill="#93f"/>
    <path id="路径_583" data-name="路径 583" d="M329.177,72.653l-.387-.513-14.8.877a.89.89,0,0,1-.7-.214.961.961,0,0,1-.234-.706.788.788,0,0,1,.652-.835l1.081-.064,1.55-.022a43.261,43.261,0,0,0,2.65-5.327,2.23,2.23,0,0,1,.52-.824.988.988,0,0,1,.683-.268q.877,0,.877.813a11.622,11.622,0,0,1-1.57,3.231l-1.386,2.311q7.094-.171,9.113-.321l.387-.022a16.56,16.56,0,0,0-2.161-2.225,1.261,1.261,0,0,1-.653-.941.808.808,0,0,1,.184-.578.786.786,0,0,1,.592-.193q.509,0,3.2,2.675,2.65,2.653,2.651,3.423,0,.856-.918.856-.53,0-1.325-1.134m-13.732,10.42a2.218,2.218,0,0,1-.458-1.755V77.189q-.144-2.439,2.2-2.289H327.2q2.385-.149,2.221,2.289v4.129q.144,2.439-2.221,2.311H317.189a2.348,2.348,0,0,1-1.743-.557m12.264-2.2V77.7q0-1.176-1.081-1.177h-8.808a.988.988,0,0,0-1.1,1.134v3.167q0,1.154,1.061,1.155h8.808a.987.987,0,0,0,1.121-1.113" transform="translate(-1936.588 -357.704)" fill="#93f"/>
    <path id="路径_584" data-name="路径 584" d="M274.447,46.418a.919.919,0,0,1,.323-.73,4.486,4.486,0,0,1,1.13-.344l.565-.15a14.753,14.753,0,0,0,5.955-2.964,15.267,15.267,0,0,1-2.5-3.737,8.247,8.247,0,0,1-1.049-3.136q0-.816.888-.816.566,0,.828.859a14.007,14.007,0,0,0,3.129,5.605,16.584,16.584,0,0,0,3.129-5.692q.323-.966.949-.966a.809.809,0,0,1,.928.9,8.058,8.058,0,0,1-1.15,3.092,18.372,18.372,0,0,1-2.585,3.844,14.8,14.8,0,0,0,6.662,3.028q1.172.237,1.172,1.1,0,1.095-.969,1.1a12.37,12.37,0,0,1-3.553-1.117,15.546,15.546,0,0,1-4.6-2.857,17.146,17.146,0,0,1-4.5,2.857A11.068,11.068,0,0,1,275.4,47.47q-.949,0-.949-1.052m.2-12.629q0-.558.908-1.074a15.037,15.037,0,0,0,4.036-3.458q.566-.666.97-.666.968,0,.969.881a2.221,2.221,0,0,1-.6,1.16,18.486,18.486,0,0,1-1.847,1.911q-2.483,2.3-3.532,2.3-.909,0-.908-1.052m15.523-.3q-1.232-1.1-1.978-1.676-.808-.622-1.716-1.224-.787-.494-.787-.967a.855.855,0,0,1,.969-.966,12.958,12.958,0,0,1,3.209,1.933q2.745,1.932,2.746,2.749,0,1.1-1.009,1.1-.363,0-1.433-.945" transform="translate(-1922.458 -344.466)" fill="#93f"/>
    <path id="路径_585" data-name="路径 585" d="M329.334,37.614q-.1,2.685-.242,5.3h1.171a.763.763,0,0,1,.868.859q0,.838-.868.837h-1.272a4,4,0,0,1-.787,2.535q-.668.645-3.493.645-1.07,0-1.07-.86a.77.77,0,0,1,.828-.859l.807-.022a3.838,3.838,0,0,0,1.514-.257q.383-.236.444-1.182h-10.9A2.138,2.138,0,0,1,314.9,44.2a1.351,1.351,0,0,1-.4-1.235q.1-.988.364-5.348H313.79a.763.763,0,0,1-.867-.859.754.754,0,0,1,.867-.837h1.172l.08-1.267q.162-2.384.263-3.544.182-2.041,2.019-2.04h10.012a2.857,2.857,0,0,1,1.343.257,1.372,1.372,0,0,1,.656.816,4.992,4.992,0,0,1,.162,1.568l-.1,4.21h1.07q.908,0,.908.859,0,.838-.908.837Zm-1.7,0H316.556l-.3,4.424a.794.794,0,0,0,.222.656,1,1,0,0,0,.706.225h10.194q.2-3.5.262-5.3m-10.921-2.727-.06,1.031h11.021q.081-2.791.08-4.21,0-.944-.988-.945h-8.862a.885.885,0,0,0-.706.279,1.41,1.41,0,0,0-.282.837q-.122,1.268-.2,3.007m2.887,4.3a.7.7,0,0,1,.787-.795,4.534,4.534,0,0,1,1.241.483,18.82,18.82,0,0,1,2.109,1.213l.586.387a1.011,1.011,0,0,1,.585.816q0,.9-.848.9a1.782,1.782,0,0,1-.666-.322l-1.09-.644q-1.535-.923-1.938-1.181-.768-.494-.767-.859m5.047-4.833q0,.881-.828.881a1.589,1.589,0,0,1-.626-.3l-2.443-1.568q-1.09-.709-1.09-1.031a.8.8,0,0,1,.2-.6.845.845,0,0,1,.605-.193,3.241,3.241,0,0,1,.889.387q.726.387,1.655.966,1.635,1.01,1.635,1.461" transform="translate(-1936.542 -344.64)" fill="#93f"/>
    <path id="路径_586" data-name="路径 586" d="M129.414,47.466a1.135,1.135,0,0,1-.387-.865v-6.78l-6.616-8.88a1.653,1.653,0,0,1-.221-.744,1.222,1.222,0,0,1,.359-.878,1.184,1.184,0,0,1,.886-.372,1.3,1.3,0,0,1,1.135.612l5.758,8.056,5.758-8.056a1.3,1.3,0,0,1,1.135-.612,1.221,1.221,0,0,1,.872.359,1.127,1.127,0,0,1,.373.838,2,2,0,0,1-.221.8l-6.644,8.88V46.6a1.156,1.156,0,0,1-.374.865,1.253,1.253,0,0,1-.9.359,1.3,1.3,0,0,1-.914-.359" transform="translate(-1866.726 -344.596)" fill="#93f"/>
    <path id="路径_587" data-name="路径 587" d="M152.479,46.62a8.031,8.031,0,0,1-2.81-3.344,11.921,11.921,0,0,1-.011-9.766,7.819,7.819,0,0,1,2.845-3.356,8.149,8.149,0,0,1,8.532,0,8.024,8.024,0,0,1,2.809,3.356,11.829,11.829,0,0,1,.011,9.727A7.975,7.975,0,0,1,161,46.62a7.551,7.551,0,0,1-4.242,1.206,7.65,7.65,0,0,1-4.277-1.206m7.513-1.809a6.018,6.018,0,0,0,2.1-2.553,8.911,8.911,0,0,0,.739-3.718,9.054,9.054,0,0,0-.727-3.7,5.991,5.991,0,0,0-2.134-2.593,5.635,5.635,0,0,0-3.212-.926,5.433,5.433,0,0,0-3.236.952,6.02,6.02,0,0,0-2.1,2.554,8.914,8.914,0,0,0-.738,3.718,9.056,9.056,0,0,0,.727,3.7,5.906,5.906,0,0,0,2.122,2.606,5.676,5.676,0,0,0,3.224.913,5.426,5.426,0,0,0,3.236-.952" transform="translate(-1876.4 -344.596)" fill="#93f"/>
    <path id="路径_588" data-name="路径 588" d="M182.315,47.033a6.99,6.99,0,0,1-3.108-2.482,6.7,6.7,0,0,1-1.159-3.934V30.188a1.173,1.173,0,0,1,.382-.871,1.271,1.271,0,0,1,.918-.37,1.323,1.323,0,0,1,.933.37,1.154,1.154,0,0,1,.4.871V40.7a4.318,4.318,0,0,0,.791,2.666,4.666,4.666,0,0,0,1.992,1.65,6.541,6.541,0,0,0,2.727.567,6.711,6.711,0,0,0,2.713-.554,4.587,4.587,0,0,0,2.063-1.7A4.686,4.686,0,0,0,191.7,40.7V30.188a1.171,1.171,0,0,1,.382-.871,1.27,1.27,0,0,1,.918-.37,1.32,1.32,0,0,1,.933.37,1.153,1.153,0,0,1,.4.871V40.617a6.682,6.682,0,0,1-1.187,3.986,7.326,7.326,0,0,1-3.009,2.4,9.88,9.88,0,0,1-7.814.026" transform="translate(-1887.172 -344.596)" fill="#93f"/>
    <path id="路径_589" data-name="路径 589" d="M209.837,47.466a1.177,1.177,0,0,1-.359-.865V30.728a1.731,1.731,0,0,1,.519-1.25,1.675,1.675,0,0,1,1.239-.532h.346a1.875,1.875,0,0,1,1.492.8l9.83,14.171q.133.16.213.16.053,0,.107-.08a.328.328,0,0,0,.054-.186V30.2a1.223,1.223,0,0,1,.36-.878,1.16,1.16,0,0,1,.865-.372,1.272,1.272,0,0,1,1.252,1.25V46.07a1.668,1.668,0,0,1-.533,1.236,1.739,1.739,0,0,1-1.253.519h-.32a1.747,1.747,0,0,1-.813-.2,1.8,1.8,0,0,1-.626-.518l-9.883-14.251c-.089-.107-.16-.16-.213-.16q-.054,0-.106.08a.323.323,0,0,0-.053.186V46.6a1.155,1.155,0,0,1-.373.865,1.229,1.229,0,0,1-.879.359,1.182,1.182,0,0,1-.865-.359" transform="translate(-1898.677 -344.596)" fill="#93f"/>
    <path id="路径_590" data-name="路径 590" d="M244.343,46.62a8.325,8.325,0,0,1-3.281-3.343,10.054,10.054,0,0,1-1.156-4.864,9.892,9.892,0,0,1,1.208-4.929,8.633,8.633,0,0,1,3.308-3.343,9.242,9.242,0,0,1,4.648-1.193,11.813,11.813,0,0,1,3.478.472,13.12,13.12,0,0,1,3.06,1.416.865.865,0,0,1,.394.38,1.17,1.17,0,0,1,.157.59,1.1,1.1,0,0,1-1.129,1.1,1.46,1.46,0,0,1-.552-.131,11.52,11.52,0,0,0-2.493-1.1,9.283,9.283,0,0,0-2.652-.367,7.946,7.946,0,0,0-3.6.839,5.989,5.989,0,0,0-2.507,2.491,7.811,7.811,0,0,0-.879,3.775,7.625,7.625,0,0,0,.867,3.645,6.108,6.108,0,0,0,2.493,2.556,7.6,7.6,0,0,0,3.755.9,9.524,9.524,0,0,0,4.568-1.154V39.986a.278.278,0,0,0-.315-.314h-3.99a1.1,1.1,0,0,1,0-2.2H254.9a1.3,1.3,0,0,1,1.288,1.285v5.952a1.864,1.864,0,0,1-.262.983,1.733,1.733,0,0,1-.762.668,13.529,13.529,0,0,1-6.012,1.469,9.38,9.38,0,0,1-4.8-1.206" transform="translate(-1909.815 -344.596)" fill="#93f"/>
  </g>
</svg>
