<svg id="组_245" data-name="组 245" xmlns="http://www.w3.org/2000/svg" width="25.165" height="23.977" viewBox="0 0 25.165 23.977">
  <path id="路径_94" data-name="路径 94" d="M984.444,1659.359c0-5.63-5.644-10.211-12.582-10.211s-12.583,4.58-12.583,10.211c0,5.047,4.476,9.275,10.523,10.074.409.089.968.27,1.108.62a2.59,2.59,0,0,1,.041,1.138s-.148.888-.18,1.077c-.055.318-.253,1.244,1.09.679s7.246-4.267,9.886-7.306h0A9.083,9.083,0,0,0,984.444,1659.359Zm-17.022,3.011a.24.24,0,0,1-.24.24h-3.535a.24.24,0,0,1-.24-.24v0h0v-5.487a.24.24,0,0,1,.24-.24h.892a.241.241,0,0,1,.24.24v4.358h2.4a.241.241,0,0,1,.24.24Zm2.128,0a.24.24,0,0,1-.24.24h-.892a.24.24,0,0,1-.24-.24v-5.491a.24.24,0,0,1,.24-.24h.892a.24.24,0,0,1,.24.24Zm6.075,0a.24.24,0,0,1-.24.24H974.5a.248.248,0,0,1-.063-.008h0l-.017-.005-.008,0-.012-.005-.012-.006-.007,0-.015-.009,0,0a.247.247,0,0,1-.062-.06l-2.516-3.4v3.26a.24.24,0,0,1-.24.24h-.892a.24.24,0,0,1-.24-.24v-5.491a.24.24,0,0,1,.24-.24h.909l.013,0h.01l.014,0,.009,0,.015,0,.008,0,.014.006.008,0,.013.007.008,0,.012.009.006,0,.013.011,0,0,.014.015v0a.2.2,0,0,1,.019.025l2.513,3.393v-3.261a.24.24,0,0,1,.24-.24h.892a.24.24,0,0,1,.24.24Zm4.873-4.6a.24.24,0,0,1-.24.24h-2.4v.927h2.4a.241.241,0,0,1,.24.24v.892a.24.24,0,0,1-.24.24h-2.4v.926h2.4a.241.241,0,0,1,.24.24v.892a.24.24,0,0,1-.24.24h-3.535a.24.24,0,0,1-.24-.24v0h0v-5.481h0v-.005a.24.24,0,0,1,.24-.24h3.535a.241.241,0,0,1,.24.24Z" transform="translate(-959.279 -1649.149)" fill="#232425"/>
</svg>
