<svg xmlns="http://www.w3.org/2000/svg" width="123.049" height="137.525" viewBox="0 0 123.049 137.525">
  <g id="组_28" data-name="组 28" transform="matrix(0.574, -0.819, 0.819, 0.574, -1463.391, 1070.228)">
    <path id="路径_194" data-name="路径 194" d="M1664.516,610.229l2.438.188.567-7.393-2.44-.185.1-1.289,6.4.49-.1,1.289-2.438-.186-.567,7.391,2.439.187-.1,1.288-6.4-.49Z" transform="translate(27.824 0)" fill="#9d4cff"/>
    <path id="路径_195" data-name="路径 195" d="M1675.329,602.918l6,1.924-.393,1.232-4.544-1.456-.867,2.7,3.845,1.232-.4,1.23-3.842-1.23-1,3.13,4.689,1.5-.4,1.232-6.15-1.97Z" transform="translate(33.297 0.953)" fill="#9d4cff"/>
    <path id="路径_196" data-name="路径 196" d="M1681.038,609.782c1.681-2.775,4.351-3.447,6.6-2.087a3.892,3.892,0,0,1,1.761,2.512l-1.239.375a2.617,2.617,0,0,0-1.218-1.739c-1.525-.923-3.3-.3-4.526,1.724-1.245,2.051-.986,3.932.558,4.867a2.763,2.763,0,0,0,2.361.212l.26,1.244a3.931,3.931,0,0,1-3.444-.385C1680.03,615.223,1679.332,612.6,1681.038,609.782Z" transform="translate(38.733 3.806)" fill="#9d4cff"/>
    <path id="路径_197" data-name="路径 197" d="M1688.341,614.12c2.289-2.321,4.745-2.535,6.375-.93s1.449,4.067-.838,6.387c-2.328,2.36-4.808,2.6-6.438.994S1686.015,616.482,1688.341,614.12Zm4.411,4.347c1.686-1.71,2.012-3.346,1.023-4.32s-2.621-.628-4.308,1.082c-1.723,1.749-2.076,3.413-1.087,4.387S1691.026,620.217,1692.751,618.467Z" transform="translate(43.119 7.384)" fill="#9d4cff"/>
    <path id="路径_198" data-name="路径 198" d="M1691.5,622.219l1.371.2a4.216,4.216,0,0,0,.519,3.049c.675,1.069,1.54,1.354,2.222.924.826-.519.667-1.281.5-2.341l-.229-1.523a2.868,2.868,0,0,1,1.072-3.2c1.318-.83,3.062-.27,4.114,1.4a4.486,4.486,0,0,1,.611,3.325l-1.249-.149a3.533,3.533,0,0,0-.533-2.519c-.56-.889-1.349-1.228-2.041-.792-.735.461-.541,1.359-.363,2.287l.217,1.466c.253,1.321.134,2.5-1.1,3.281-1.359.855-3.188.4-4.394-1.513A5.25,5.25,0,0,1,1691.5,622.219Z" transform="translate(46.608 12.115)" fill="#9d4cff"/>
    <path id="路径_199" data-name="路径 199" d="M1698.466,631.135l5.074-5.234.524,1.544-2.224,2.206c-.621.59-1.225,1.152-1.853,1.774l.02.058c.872.1,1.705.214,2.559.307l3.1.356.507,1.5-7.21-1.057-3.333,1.133-.494-1.452Z" transform="translate(49.217 16.96)" fill="#9d4cff"/>
    <path id="路径_200" data-name="路径 200" d="M1697.92,635.527l1.133.8a4.2,4.2,0,0,0-.918,2.952c.115,1.261.76,1.907,1.561,1.832.972-.09,1.176-.84,1.5-1.866l.485-1.459a2.861,2.861,0,0,1,2.407-2.37c1.55-.142,2.85,1.143,3.032,3.11a4.486,4.486,0,0,1-.962,3.242l-1.045-.7a3.534,3.534,0,0,0,.667-2.485c-.1-1.047-.646-1.707-1.461-1.632-.864.08-1.1.967-1.359,1.875l-.472,1.4c-.37,1.293-1.011,2.292-2.467,2.426-1.6.148-3.025-1.082-3.232-3.339A5.26,5.26,0,0,1,1697.92,635.527Z" transform="translate(50.357 23.58)" fill="#9d4cff"/>
    <path id="路径_201" data-name="路径 201" d="M1705.484,646.993l.445-3.2,1.279.178-1.1,7.911-1.279-.18.443-3.195-8.62-1.194.21-1.52Z" transform="translate(50.276 29.425)" fill="#9d4cff"/>
    <path id="路径_202" data-name="路径 202" d="M1705.652,654.975l-2.3,5.865-1.2-.47,1.739-4.44-2.64-1.033-1.471,3.754-1.2-.47,1.471-3.754-3.059-1.2-1.793,4.579-1.2-.47,2.353-6.007Z" transform="translate(48.423 34.672)" fill="#9d4cff"/>
    <path id="路径_203" data-name="路径 203" d="M1702.154,663.753l-1.006,1.449-4.085-1.264-1.534-.519-.034.051,1.028,1.245,2.6,3.4-1,1.447-8.206-5.7.8-1.147,3.7,2.569c.831.579,2.294,1.792,3,2.37l.026-.036-1.4-1.725-2.185-3.055.548-.787,3.613.994,2.107.714.021-.029c-.8-.439-2.438-1.4-3.271-1.983l-3.7-2.569.781-1.123Z" transform="translate(45.584 39.356)" fill="#9d4cff"/>
    <path id="路径_204" data-name="路径 204" d="M1688.093,669.535a1.574,1.574,0,1,1,2.222.088A1.573,1.573,0,0,1,1688.093,669.535Z" transform="translate(44.022 45.511)" fill="#9d4cff"/>
    <path id="路径_205" data-name="路径 205" d="M1684.957,669.814l-2.116,1.228,3.721,6.409,2.116-1.227.648,1.116-5.556,3.225-.648-1.116,2.115-1.228-3.721-6.411-2.115,1.227-.648-1.116,5.554-3.225Z" transform="translate(37.808 46.767)" fill="#9d4cff"/>
    <path id="路径_206" data-name="路径 206" d="M1680.336,681.8l-6.036,1.8-.371-1.237L1678.5,681l-.813-2.718-3.863,1.155-.372-1.237,3.865-1.155-.942-3.149-4.713,1.41-.372-1.238,6.182-1.849Z" transform="translate(32.609 49.222)" fill="#9d4cff"/>
    <path id="路径_207" data-name="路径 207" d="M1671.142,678.884c.187,3.237-1.63,5.3-4.251,5.452a3.885,3.885,0,0,1-2.872-1.071l.806-1.008a2.624,2.624,0,0,0,1.989.738c1.778-.1,2.887-1.624,2.752-3.98-.138-2.392-1.417-3.8-3.217-3.692a2.761,2.761,0,0,0-2.065,1.164l-.916-.879a3.938,3.938,0,0,1,3.054-1.632C1668.891,673.835,1670.954,675.6,1671.142,678.884Z" transform="translate(27.092 50.44)" fill="#9d4cff"/>
    <path id="路径_208" data-name="路径 208" d="M1662.806,679.343c-.568,3.211-2.472,4.781-4.727,4.38s-3.5-2.528-2.931-5.739c.578-3.263,2.487-4.871,4.742-4.47S1663.385,676.077,1662.806,679.343Zm-6.1-1.081c-.419,2.365.241,3.9,1.61,4.141s2.513-.97,2.933-3.337c.429-2.421-.225-3.989-1.591-4.233S1657.135,675.841,1656.705,678.262Z" transform="translate(21.272 50.081)" fill="#9d4cff"/>
    <path id="路径_209" data-name="路径 209" d="M1656,674.237l-1.249.611a4.2,4.2,0,0,0-2.148-2.226c-1.162-.5-2.038-.249-2.358.489-.389.9.173,1.437.913,2.216l1.048,1.128a2.867,2.867,0,0,1,.921,3.252c-.619,1.43-2.375,1.953-4.185,1.166a4.493,4.493,0,0,1-2.383-2.4l1.116-.582a3.524,3.524,0,0,0,1.861,1.78c.965.419,1.808.255,2.134-.5.344-.8-.321-1.432-.992-2.1l-1.006-1.087c-.955-.948-1.523-1.992-.94-3.332.638-1.472,2.4-2.134,4.482-1.232A5.266,5.266,0,0,1,1656,674.237Z" transform="translate(15.387 48.382)" fill="#9d4cff"/>
    <path id="路径_210" data-name="路径 210" d="M1646.07,670.938l-1.233,7.178-1.3-.979.59-3.074c.178-.836.36-1.641.528-2.508l-.049-.036c-.777.411-1.528.784-2.284,1.189l-2.757,1.451-1.264-.948,6.543-3.195,2.112-2.815,1.228.919Z" transform="translate(9.632 45.727)" fill="#9d4cff"/>
    <path id="路径_211" data-name="路径 211" d="M1643.172,666.439l-1.389-.015a4.208,4.208,0,0,0-.921-2.954c-.809-.972-1.708-1.138-2.326-.623-.75.626-.492,1.362-.178,2.39l.429,1.479a2.866,2.866,0,0,1-.635,3.32c-1.2,1-3,.677-4.267-.84a4.482,4.482,0,0,1-1.05-3.215l1.259-.019a3.519,3.519,0,0,0,.864,2.426c.674.807,1.5,1.038,2.129.514.667-.556.358-1.422.056-2.317l-.411-1.425c-.429-1.276-.468-2.463.653-3.4,1.234-1.028,3.107-.828,4.56.913A5.267,5.267,0,0,1,1643.172,666.439Z" transform="translate(5.817 41.502)" fill="#9d4cff"/>
    <path id="路径_212" data-name="路径 212" d="M1630.84,660.492l1.44,2.891-1.159.573-3.563-7.149,1.159-.577,1.439,2.889,7.794-3.882.686,1.371Z" transform="translate(2.152 37.394)" fill="#9d4cff"/>
    <path id="路径_213" data-name="路径 213" d="M1626.485,654.858l-1.422-6.143,1.26-.292,1.075,4.648,2.765-.64-.909-3.931,1.259-.292.909,3.931,3.2-.74-1.109-4.8,1.259-.292,1.456,6.293Z" transform="translate(0.413 31.176)" fill="#9d4cff"/>
    <path id="路径_214" data-name="路径 214" d="M1624.47,645.52l.031-1.766,4.1-1.225,1.564-.422,0-.061-1.549-.463-4.061-1.374.031-1.766,10,.168-.022,1.4-4.513-.076c-1.013-.017-2.906-.214-3.819-.3v.046l2.129.653,3.522,1.323-.017.964-3.562,1.186-2.15.578,0,.034c.915-.081,2.813-.188,3.826-.17l4.513.076-.024,1.367Z" transform="translate(0 25.695)" fill="#9d4cff"/>
  </g>
</svg>
