<svg id="组_147" data-name="组 147" xmlns="http://www.w3.org/2000/svg" width="66.421" height="61.679" viewBox="0 0 66.421 61.679">
  <path id="路径_566" data-name="路径 566" d="M226.6,267.518a.4.4,0,0,0-.533-.254.422.422,0,0,0-.264.537,1.159,1.159,0,0,0,.068.248,5.145,5.145,0,0,1,.274,1.01c.652,3.367-.26,8.114-3.468,9.977a6.448,6.448,0,0,1-5.191.346c-1.554-.511-2.807-1.645-4.318-2.258a2.556,2.556,0,0,0-1.676-.1c-1.642.483-2.051,2.293-1.92,3.8a5.712,5.712,0,0,0,2.164,4.062,3.665,3.665,0,0,0,.544.285,3.479,3.479,0,0,0-.141.622,6.06,6.06,0,0,0,2.11,4.839,5.514,5.514,0,0,0,3.165,1.213.876.876,0,0,1,.428.081c.1.066.142.193.206.448a3.244,3.244,0,0,0,.257.682,4.325,4.325,0,0,0,3.534,2.192,3.372,3.372,0,0,0,2.107-.468,5.94,5.94,0,0,0,1.739-1.954,17.958,17.958,0,0,0,1.776-4.99,32.466,32.466,0,0,0,.625-3.684,47.66,47.66,0,0,0,.166-6.31A28.808,28.808,0,0,0,226.6,267.518Zm-.356,11.051a6.71,6.71,0,0,1-.323,1.054,16.654,16.654,0,0,1-.631,1.588,31.638,31.638,0,0,1-1.548,2.91,13.541,13.541,0,0,1-3.676,4.377,2.928,2.928,0,0,1-4.557-1.914,2.7,2.7,0,0,1,1.83-3.08,19.577,19.577,0,0,0,5.818-2.206,6.661,6.661,0,0,0,2.526-2.682,1.057,1.057,0,0,1,.23-.36c.162-.141.255-.129.3-.052A.619.619,0,0,1,226.243,278.569Z" transform="translate(-204.337 -236.852)" fill="#302d2c"/>
  <circle id="椭圆_56" data-name="椭圆 56" cx="2.375" cy="2.375" r="2.375" transform="translate(14.185 34.532)" fill="#302d2c"/>
  <path id="路径_567" data-name="路径 567" d="M250.351,183.422a5.04,5.04,0,0,0,2.244.436,2.713,2.713,0,0,0,2.367-1.871,1.95,1.95,0,0,0-1.12-2.305,2.792,2.792,0,0,0-1.487-.117c-1.106.25-2.516.818-3.321-.339a2.408,2.408,0,0,1-.361-1.621c.35-3.356,4.318-4.68,7.167-3.691a7.959,7.959,0,0,1,4.59,4.639,22.366,22.366,0,0,1,1.126,3.99,8.166,8.166,0,0,1,.109,2.308,8.62,8.62,0,0,1-.346,2.208,1.547,1.547,0,0,1-1.131,1.1,1.24,1.24,0,0,1-1.061-.482,3.023,3.023,0,0,1-.517-1.091,5.217,5.217,0,0,0-.731-1.8.558.558,0,0,0-.995.081,1.5,1.5,0,0,0-.245.611,6.348,6.348,0,0,0,.955,3.713,13.554,13.554,0,0,0,2.652,3.365,27.632,27.632,0,0,0,2.5,2.135c.085.063.163.128.257.187a.266.266,0,0,0,.094.028h0a.264.264,0,0,0,.094-.028c.094-.059.172-.125.257-.187a27.632,27.632,0,0,0,2.5-2.135,13.549,13.549,0,0,0,2.652-3.365,6.351,6.351,0,0,0,.955-3.713,1.506,1.506,0,0,0-.245-.611.558.558,0,0,0-1-.081,5.217,5.217,0,0,0-.731,1.8,3.014,3.014,0,0,1-.517,1.091,1.24,1.24,0,0,1-1.061.482,1.546,1.546,0,0,1-1.131-1.1,8.6,8.6,0,0,1-.346-2.208,8.167,8.167,0,0,1,.11-2.308,22.367,22.367,0,0,1,1.126-3.99,7.959,7.959,0,0,1,4.59-4.639c2.849-.989,6.816.334,7.167,3.691a2.411,2.411,0,0,1-.362,1.621c-.8,1.157-2.215.589-3.321.339a2.793,2.793,0,0,0-1.487.117,1.951,1.951,0,0,0-1.12,2.305,2.713,2.713,0,0,0,2.367,1.871,5.041,5.041,0,0,0,2.244-.436,5.788,5.788,0,0,0,3.3-4.564c.466-3.575-2.366-6.547-5.752-7.109a7.726,7.726,0,0,0-3.564.238,8.357,8.357,0,0,0-2.963,1.77,11.792,11.792,0,0,0-2.721,3.487c-.356.68-.691,1.376-1.044,2.091,0,0,0,0,0,0-.352-.715-.688-1.411-1.044-2.091a11.792,11.792,0,0,0-2.721-3.487,8.356,8.356,0,0,0-2.963-1.77,7.727,7.727,0,0,0-3.565-.238c-3.386.562-6.218,3.535-5.752,7.109A5.789,5.789,0,0,0,250.351,183.422Z" transform="translate(-229.883 -171.641)" fill="#302d2c"/>
  <path id="路径_568" data-name="路径 568" d="M343.577,277.03a2.557,2.557,0,0,0-1.676.1c-1.511.614-2.764,1.747-4.318,2.258a6.449,6.449,0,0,1-5.191-.346c-3.209-1.864-4.12-6.611-3.468-9.977a5.126,5.126,0,0,1,.274-1.01,1.18,1.18,0,0,0,.069-.248.422.422,0,0,0-.264-.537.4.4,0,0,0-.533.254,28.808,28.808,0,0,0-1.653,10.328,47.6,47.6,0,0,0,.166,6.31,32.405,32.405,0,0,0,.625,3.684,17.946,17.946,0,0,0,1.776,4.99,5.943,5.943,0,0,0,1.739,1.954,3.372,3.372,0,0,0,2.107.468,4.326,4.326,0,0,0,3.535-2.192,3.222,3.222,0,0,0,.257-.682c.064-.256.108-.382.206-.448a.876.876,0,0,1,.428-.081,5.514,5.514,0,0,0,3.165-1.213,6.061,6.061,0,0,0,2.109-4.839,3.479,3.479,0,0,0-.141-.622,3.649,3.649,0,0,0,.544-.285,5.711,5.711,0,0,0,2.164-4.062C345.627,279.323,345.218,277.513,343.577,277.03Zm-4.016,9.553A2.928,2.928,0,0,1,335,288.5a13.546,13.546,0,0,1-3.677-4.377,31.628,31.628,0,0,1-1.548-2.91,16.665,16.665,0,0,1-.632-1.588,6.673,6.673,0,0,1-.323-1.054.616.616,0,0,1,.03-.366c.047-.078.14-.089.3.052a1.05,1.05,0,0,1,.229.36,6.66,6.66,0,0,0,2.526,2.682,19.574,19.574,0,0,0,5.818,2.206A2.7,2.7,0,0,1,339.561,286.583Z" transform="translate(-284.31 -236.852)" fill="#302d2c"/>
  <circle id="椭圆_57" data-name="椭圆 57" cx="2.375" cy="2.375" r="2.375" transform="translate(47.486 34.532)" fill="#302d2c"/>
  <path id="路径_569" data-name="路径 569" d="M249.525,230.387a10.133,10.133,0,0,1,3.678-1.943c2.065-.65,5.3-.97,6.634,1.18a2.725,2.725,0,0,1-1.17,3.764,5.583,5.583,0,0,1-2.522.609c-.957.02-1.91,0-2.865-.012-.531-.009-1.063-.018-1.595-.022a8.218,8.218,0,0,0-3.039.444,4.33,4.33,0,0,0-1.453.916,2.56,2.56,0,0,0-.81,1.184.4.4,0,0,0,.007.213.359.359,0,0,0,.446.171c.495-.158.792-.8,1.215-1.081a4.015,4.015,0,0,1,1.349-.57,6,6,0,0,1,2.97.156c3.348.972,8.841,3.625,10.836-.937a4.419,4.419,0,0,0,.329-2.243,6.43,6.43,0,0,0-4.25-5.038,10.241,10.241,0,0,0-6.562-.09,20.169,20.169,0,0,0-10.487,8.6,26.317,26.317,0,0,0-3.006,7.2,59.519,59.519,0,0,0-1.769,9.359A28.455,28.455,0,0,1,236.4,257.7c-.34,1.054-1.17,3.981-2.57,4.042-1.4-.061-2.23-2.988-2.57-4.042a28.456,28.456,0,0,1-1.058-5.453,59.445,59.445,0,0,0-1.769-9.359,26.325,26.325,0,0,0-3.006-7.2,20.168,20.168,0,0,0-10.487-8.6,10.24,10.24,0,0,0-6.561.09,6.431,6.431,0,0,0-4.251,5.038,4.418,4.418,0,0,0,.329,2.243c1.995,4.562,7.489,1.909,10.837.937a6,6,0,0,1,2.969-.156,4.011,4.011,0,0,1,1.349.57c.423.284.721.923,1.215,1.081a.359.359,0,0,0,.446-.171.4.4,0,0,0,.007-.213,2.563,2.563,0,0,0-.81-1.184,4.334,4.334,0,0,0-1.453-.916,8.22,8.22,0,0,0-3.039-.444c-.532,0-1.064.013-1.595.022-.954.016-1.908.032-2.865.012a5.585,5.585,0,0,1-2.522-.609,2.724,2.724,0,0,1-1.17-3.764c1.338-2.15,4.569-1.83,6.634-1.18a10.135,10.135,0,0,1,3.678,1.943,25.005,25.005,0,0,1,2.777,2.927c3.883,4.817,5.347,10.652,5.685,16.728.134,2.411.127,4.827.161,7.24.077,5.5,1.512,10.2,6.56,13.367a.978.978,0,0,0,.51.155h0a.978.978,0,0,0,.51-.155c5.047-3.166,6.483-7.865,6.56-13.367.033-2.413.026-4.829.16-7.24.338-6.076,1.8-11.911,5.685-16.728A24.957,24.957,0,0,1,249.525,230.387Z" transform="translate(-200.622 -209.127)" fill="#302d2c"/>
  <path id="路径_570" data-name="路径 570" d="M258.9,220.414a10.484,10.484,0,0,0-7.494-6.65,13.225,13.225,0,0,0-3.122-.344,17.715,17.715,0,0,0-2.886.259,24.162,24.162,0,0,0-10.736,5.07,48.34,48.34,0,0,0-4.84,4.693c-.725.763-1.412,1.562-2.129,2.333a5.655,5.655,0,0,1-.756.675.926.926,0,0,1-1.14,0,5.655,5.655,0,0,1-.756-.675c-.717-.77-1.4-1.57-2.129-2.333a48.3,48.3,0,0,0-4.84-4.693,24.162,24.162,0,0,0-10.735-5.07,17.722,17.722,0,0,0-2.887-.259,13.223,13.223,0,0,0-3.121.344,10.485,10.485,0,0,0-7.495,6.65,14.5,14.5,0,0,0-.178,8.176,10.977,10.977,0,0,0,4.7,6.878c1.464.882,3.609,1.713,5.325,1.268a3.138,3.138,0,0,0,1.794-1.27,3.059,3.059,0,0,0-.071-3.517,5.259,5.259,0,0,0-2.816-1.731c-1.041-.3-2.123-.423-3.184-.636-2.028-.407-3.963-1.332-4.741-3.384a5.522,5.522,0,0,1,.114-3.681,9.914,9.914,0,0,1,1.524-3.048,9.6,9.6,0,0,1,3.869-3.13,10.241,10.241,0,0,1,5.9-.465,17.822,17.822,0,0,1,5.234,1.957,19.953,19.953,0,0,1,3.534,2.43,28.88,28.88,0,0,1,3.922,3.894,25.28,25.28,0,0,1,2.841,4.629,36.141,36.141,0,0,1,2.516,7.227c.686,2.88.81,5.862,1.267,8.781a2.051,2.051,0,0,0,.939,1.467.148.148,0,0,0,.05.015h0a.148.148,0,0,0,.05-.015,2.053,2.053,0,0,0,.939-1.467c.457-2.919.581-5.9,1.267-8.781a36.125,36.125,0,0,1,2.517-7.227,25.279,25.279,0,0,1,2.84-4.629,28.878,28.878,0,0,1,3.922-3.894,19.964,19.964,0,0,1,3.534-2.43,17.825,17.825,0,0,1,5.234-1.957,10.241,10.241,0,0,1,5.9.465,9.6,9.6,0,0,1,3.869,3.13,9.9,9.9,0,0,1,1.524,3.048,5.52,5.52,0,0,1,.114,3.681c-.778,2.052-2.712,2.977-4.741,3.384-1.062.213-2.143.337-3.184.636a5.26,5.26,0,0,0-2.816,1.731,3.058,3.058,0,0,0-.07,3.517,3.136,3.136,0,0,0,1.793,1.27c1.716.446,3.861-.385,5.325-1.268a10.975,10.975,0,0,0,4.7-6.878A14.5,14.5,0,0,0,258.9,220.414Z" transform="translate(-193.152 -200.141)" fill="#302d2c"/>
</svg>
