<svg xmlns="http://www.w3.org/2000/svg" width="303.567" height="254.34" viewBox="0 0 303.567 254.34">
  <path id="路径_500" data-name="路径 500" d="M-558.053,1714.566a61.3,61.3,0,0,1-3.308-10.418c-6.258-28.511,13.135-54.112,40.711-60.082,17.691-3.829,36.723-2.04,52.374-12.6,23.737-16.012,11.317-40.483,25.124-60.066,6.726-9.541,18.077-15.768,28.936-19.365,19.982-6.618,47.114-10.01,65.686,1.993,15.337,9.912,24.449,26.855,33.606,42.079,8.727,14.51,25.319,30.241,27.852,47.307,4.737,31.918-30.727,52.541-26.025,83.811,1.05,6.981,2.516,14.13,1,21.024-8.851,40.157-71.86-7.775-88.811-14.966-17.867-7.58-35.692-9.767-52.726.482-14.406,8.669-26.058,23.515-43.547,26.078-16.414,2.405-32.21-7.629-43.624-19.668A85.8,85.8,0,0,1-558.053,1714.566Z" transform="matrix(-0.99, 0.139, -0.139, -0.99, -38.331, 1825.228)" fill="#fdf8e7"/>
</svg>
