<svg xmlns="http://www.w3.org/2000/svg" width="318.032" height="147.535" viewBox="0 0 318.032 147.535">
  <g id="组_112" data-name="组 112" transform="translate(885 1967.081) rotate(180)">
    <g id="组_96" data-name="组 96" transform="translate(737.501 1819.546)">
      <g id="组_81" data-name="组 81" transform="translate(0.488 0)">
        <circle id="椭圆_23" data-name="椭圆 23" cx="6" cy="6" r="6" transform="translate(0.011 0.454)" fill="#ffefef"/>
        <circle id="椭圆_24" data-name="椭圆 24" cx="6.546" cy="6.546" r="6.546" transform="translate(33.465)" fill="#ffefef"/>
        <circle id="椭圆_25" data-name="椭圆 25" cx="6.546" cy="6.546" r="6.546" transform="translate(100.435)" fill="#ffefef"/>
        <ellipse id="椭圆_26" data-name="椭圆 26" cx="7" cy="6" rx="7" ry="6" transform="translate(67.011 0.454)" fill="#ffefef"/>
        <circle id="椭圆_27" data-name="椭圆 27" cx="6" cy="6" r="6" transform="translate(134.011 0.454)" fill="#ffefef"/>
      </g>
      <g id="组_82" data-name="组 82" transform="translate(0.467 33.611)">
        <circle id="椭圆_28" data-name="椭圆 28" cx="6.546" cy="6.546" r="6.546" transform="translate(0 0)" fill="#ffefef"/>
        <circle id="椭圆_29" data-name="椭圆 29" cx="6.546" cy="6.546" r="6.546" transform="translate(33.485 0)" fill="#ffefef"/>
        <circle id="椭圆_30" data-name="椭圆 30" cx="6.546" cy="6.546" r="6.546" transform="translate(100.455 0)" fill="#ffefef"/>
        <circle id="椭圆_31" data-name="椭圆 31" cx="6.546" cy="6.546" r="6.546" transform="translate(66.97 0)" fill="#ffefef"/>
        <circle id="椭圆_32" data-name="椭圆 32" cx="6.546" cy="6.546" r="6.546" transform="translate(133.94 0)" fill="#ffefef"/>
      </g>
      <g id="组_83" data-name="组 83" transform="translate(0.467 67.222)">
        <circle id="椭圆_33" data-name="椭圆 33" cx="6.546" cy="6.546" r="6.546" transform="translate(0 0)" fill="#ffefef"/>
        <circle id="椭圆_34" data-name="椭圆 34" cx="6.546" cy="6.546" r="6.546" transform="translate(33.485 0)" fill="#ffefef"/>
        <circle id="椭圆_35" data-name="椭圆 35" cx="6.546" cy="6.546" r="6.546" transform="translate(100.455 0)" fill="#ffefef"/>
        <circle id="椭圆_36" data-name="椭圆 36" cx="6.546" cy="6.546" r="6.546" transform="translate(66.97 0)" fill="#ffefef"/>
        <circle id="椭圆_37" data-name="椭圆 37" cx="6.546" cy="6.546" r="6.546" transform="translate(133.94 0)" fill="#ffefef"/>
      </g>
      <g id="组_84" data-name="组 84" transform="translate(0.467 100.833)">
        <circle id="椭圆_38" data-name="椭圆 38" cx="6.546" cy="6.546" r="6.546" transform="translate(0 0)" fill="#ffefef"/>
        <circle id="椭圆_39" data-name="椭圆 39" cx="6.546" cy="6.546" r="6.546" transform="translate(33.485 0)" fill="#ffefef"/>
        <circle id="椭圆_40" data-name="椭圆 40" cx="6.546" cy="6.546" r="6.546" transform="translate(100.455 0)" fill="#ffefef"/>
        <circle id="椭圆_41" data-name="椭圆 41" cx="6.546" cy="6.546" r="6.546" transform="translate(66.97 0)" fill="#ffefef"/>
        <circle id="椭圆_42" data-name="椭圆 42" cx="6.546" cy="6.546" r="6.546" transform="translate(133.94 0)" fill="#ffefef"/>
      </g>
      <g id="组_85" data-name="组 85" transform="translate(0.488 134.444)">
        <ellipse id="椭圆_43" data-name="椭圆 43" cx="6" cy="6.5" rx="6" ry="6.5" transform="translate(0.011 0.011)" fill="#ffefef"/>
        <circle id="椭圆_44" data-name="椭圆 44" cx="6.546" cy="6.546" r="6.546" transform="translate(33.465)" fill="#ffefef"/>
        <circle id="椭圆_45" data-name="椭圆 45" cx="6.546" cy="6.546" r="6.546" transform="translate(100.435)" fill="#ffefef"/>
        <ellipse id="椭圆_46" data-name="椭圆 46" cx="7" cy="6.5" rx="7" ry="6.5" transform="translate(67.011 0.011)" fill="#ffefef"/>
        <ellipse id="椭圆_47" data-name="椭圆 47" cx="6" cy="6.5" rx="6" ry="6.5" transform="translate(134.011 0.011)" fill="#ffefef"/>
      </g>
    </g>
    <g id="组_99" data-name="组 99" transform="translate(566.501 1819.546)">
      <g id="组_81-2" data-name="组 81" transform="translate(0.488 0)">
        <circle id="椭圆_23-2" data-name="椭圆 23" cx="6" cy="6" r="6" transform="translate(0.011 0.454)" fill="#ffefef"/>
        <circle id="椭圆_24-2" data-name="椭圆 24" cx="6.546" cy="6.546" r="6.546" transform="translate(33.465)" fill="#ffefef"/>
        <circle id="椭圆_25-2" data-name="椭圆 25" cx="6.546" cy="6.546" r="6.546" transform="translate(100.435)" fill="#ffefef"/>
        <ellipse id="椭圆_26-2" data-name="椭圆 26" cx="7" cy="6" rx="7" ry="6" transform="translate(67.011 0.454)" fill="#ffefef"/>
        <circle id="椭圆_27-2" data-name="椭圆 27" cx="6" cy="6" r="6" transform="translate(134.011 0.454)" fill="#ffefef"/>
      </g>
      <g id="组_82-2" data-name="组 82" transform="translate(0.467 33.611)">
        <circle id="椭圆_28-2" data-name="椭圆 28" cx="6.546" cy="6.546" r="6.546" transform="translate(0 0)" fill="#ffefef"/>
        <circle id="椭圆_29-2" data-name="椭圆 29" cx="6.546" cy="6.546" r="6.546" transform="translate(33.485 0)" fill="#ffefef"/>
        <circle id="椭圆_30-2" data-name="椭圆 30" cx="6.546" cy="6.546" r="6.546" transform="translate(100.455 0)" fill="#ffefef"/>
        <circle id="椭圆_31-2" data-name="椭圆 31" cx="6.546" cy="6.546" r="6.546" transform="translate(66.97 0)" fill="#ffefef"/>
        <circle id="椭圆_32-2" data-name="椭圆 32" cx="6.546" cy="6.546" r="6.546" transform="translate(133.94 0)" fill="#ffefef"/>
      </g>
      <g id="组_83-2" data-name="组 83" transform="translate(0.467 67.222)">
        <circle id="椭圆_33-2" data-name="椭圆 33" cx="6.546" cy="6.546" r="6.546" transform="translate(0 0)" fill="#ffefef"/>
        <circle id="椭圆_34-2" data-name="椭圆 34" cx="6.546" cy="6.546" r="6.546" transform="translate(33.485 0)" fill="#ffefef"/>
        <circle id="椭圆_35-2" data-name="椭圆 35" cx="6.546" cy="6.546" r="6.546" transform="translate(100.455 0)" fill="#ffefef"/>
        <circle id="椭圆_36-2" data-name="椭圆 36" cx="6.546" cy="6.546" r="6.546" transform="translate(66.97 0)" fill="#ffefef"/>
        <circle id="椭圆_37-2" data-name="椭圆 37" cx="6.546" cy="6.546" r="6.546" transform="translate(133.94 0)" fill="#ffefef"/>
      </g>
      <g id="组_84-2" data-name="组 84" transform="translate(0.467 100.833)">
        <circle id="椭圆_38-2" data-name="椭圆 38" cx="6.546" cy="6.546" r="6.546" transform="translate(0 0)" fill="#ffefef"/>
        <circle id="椭圆_39-2" data-name="椭圆 39" cx="6.546" cy="6.546" r="6.546" transform="translate(33.485 0)" fill="#ffefef"/>
        <circle id="椭圆_40-2" data-name="椭圆 40" cx="6.546" cy="6.546" r="6.546" transform="translate(100.455 0)" fill="#ffefef"/>
        <circle id="椭圆_41-2" data-name="椭圆 41" cx="6.546" cy="6.546" r="6.546" transform="translate(66.97 0)" fill="#ffefef"/>
        <circle id="椭圆_42-2" data-name="椭圆 42" cx="6.546" cy="6.546" r="6.546" transform="translate(133.94 0)" fill="#ffefef"/>
      </g>
      <g id="组_85-2" data-name="组 85" transform="translate(0.488 134.444)">
        <ellipse id="椭圆_43-2" data-name="椭圆 43" cx="6" cy="6.5" rx="6" ry="6.5" transform="translate(0.011 0.011)" fill="#ffefef"/>
        <circle id="椭圆_44-2" data-name="椭圆 44" cx="6.546" cy="6.546" r="6.546" transform="translate(33.465)" fill="#ffefef"/>
        <circle id="椭圆_45-2" data-name="椭圆 45" cx="6.546" cy="6.546" r="6.546" transform="translate(100.435)" fill="#ffefef"/>
        <ellipse id="椭圆_46-2" data-name="椭圆 46" cx="7" cy="6.5" rx="7" ry="6.5" transform="translate(67.011 0.011)" fill="#ffefef"/>
        <ellipse id="椭圆_47-2" data-name="椭圆 47" cx="6" cy="6.5" rx="6" ry="6.5" transform="translate(134.011 0.011)" fill="#ffefef"/>
      </g>
    </g>
  </g>
</svg>
